{
	"asset":{
		"generator":"Khronos glTF Blender I/O v5.1.20",
		"version":"2.0"
	},
	"scene":0,
	"scenes":[
		{
			"name":"Scene",
			"nodes":[
				2
			]
		}
	],
	"nodes":[
		{
			"mesh":0,
			"name":"Layer.1",
			"translation":[
				0,
				0,
				0.9133551120758057
			]
		},
		{
			"mesh":1,
			"name":"Layer.3",
			"translation":[
				0,
				0,
				0.9133551120758057
			]
		},
		{
			"children":[
				0,
				1
			],
			"name":"Node_0",
			"rotation":[
				-0.70710688829422,
				0,
				0,
				0.7071066498756409
			],
			"translation":[
				0,
				-0.9133552312850952,
				0
			]
		}
	],
	"materials":[
		{
			"name":"Material.1",
			"pbrMetallicRoughness":{
				"baseColorTexture":{
					"index":0
				},
				"metallicFactor":0.20000000298023224,
				"roughnessFactor":0.800000011920929
			}
		},
		{
			"name":"Material.2"
		}
	],
	"meshes":[
		{
			"name":"Mesh_0",
			"primitives":[
				{
					"attributes":{
						"POSITION":0,
						"NORMAL":1,
						"TEXCOORD_0":2
					},
					"indices":3,
					"material":0
				}
			]
		},
		{
			"name":"Mesh_1",
			"primitives":[
				{
					"attributes":{
						"POSITION":4,
						"NORMAL":5,
						"TEXCOORD_0":6
					},
					"indices":7,
					"material":1
				}
			]
		}
	],
	"textures":[
		{
			"sampler":0,
			"source":0
		}
	],
	"images":[
		{
			"mimeType":"image/png",
			"name":"Image_0",
			"uri":"Image_0.png"
		}
	],
	"accessors":[
		{
			"bufferView":0,
			"componentType":5126,
			"count":1258,
			"max":[
				0.41999998688697815,
				0.3600001037120819,
				0.5866448283195496
			],
			"min":[
				-0.41999998688697815,
				-0.2999998927116394,
				0.04664485901594162
			],
			"type":"VEC3"
		},
		{
			"bufferView":1,
			"componentType":5126,
			"count":1258,
			"type":"VEC3"
		},
		{
			"bufferView":2,
			"componentType":5126,
			"count":1258,
			"type":"VEC2"
		},
		{
			"bufferView":3,
			"componentType":5123,
			"count":3348,
			"type":"SCALAR"
		},
		{
			"bufferView":4,
			"componentType":5126,
			"count":1012,
			"max":[
				0.35999998450279236,
				0.3000001013278961,
				0.6466448307037354
			],
			"min":[
				-0.35999998450279236,
				-0.23999986052513123,
				0.1666448563337326
			],
			"type":"VEC3"
		},
		{
			"bufferView":5,
			"componentType":5126,
			"count":1012,
			"type":"VEC3"
		},
		{
			"bufferView":6,
			"componentType":5126,
			"count":1012,
			"type":"VEC2"
		},
		{
			"bufferView":7,
			"componentType":5123,
			"count":3372,
			"type":"SCALAR"
		}
	],
	"bufferViews":[
		{
			"buffer":0,
			"byteLength":15096,
			"byteOffset":0,
			"target":34962
		},
		{
			"buffer":0,
			"byteLength":15096,
			"byteOffset":15096,
			"target":34962
		},
		{
			"buffer":0,
			"byteLength":10064,
			"byteOffset":30192,
			"target":34962
		},
		{
			"buffer":0,
			"byteLength":6696,
			"byteOffset":40256,
			"target":34963
		},
		{
			"buffer":0,
			"byteLength":12144,
			"byteOffset":46952,
			"target":34962
		},
		{
			"buffer":0,
			"byteLength":12144,
			"byteOffset":59096,
			"target":34962
		},
		{
			"buffer":0,
			"byteLength":8096,
			"byteOffset":71240,
			"target":34962
		},
		{
			"buffer":0,
			"byteLength":6744,
			"byteOffset":79336,
			"target":34963
		}
	],
	"samplers":[
		{
			"magFilter":9729,
			"minFilter":9987
		}
	],
	"buffers":[
		{
			"byteLength":86080,
			"uri":"fpv_helmet.bin"
		}
	]
}
