{
	"asset":{
		"generator":"Khronos glTF Blender I/O v5.2.39",
		"version":"2.0"
	},
	"scene":0,
	"scenes":[
		{
			"name":"Scene",
			"nodes":[
				18
			]
		}
	],
	"nodes":[
		{
			"name":"LeftFoot",
			"rotation":[
				0.6154122948646545,
				-9.396135425276952e-08,
				-1.9561754882602145e-08,
				0.7882054448127747
			],
			"scale":[
				1,
				0.9999999403953552,
				0.9999999403953552
			],
			"translation":[
				5.245366363482162e-09,
				0.12000000476837158,
				-8.349392288664603e-10
			]
		},
		{
			"children":[
				0
			],
			"name":"LeftLowerLeg",
			"translation":[
				5.245366363482162e-09,
				0.1199999749660492,
				-8.349392288664603e-10
			]
		},
		{
			"children":[
				1
			],
			"name":"LeftUpperLeg",
			"rotation":[
				4.371138828673793e-08,
				0,
				-1,
				0
			],
			"translation":[
				0.18000000715255737,
				0,
				0
			]
		},
		{
			"name":"RightFoot",
			"rotation":[
				0.6154122948646545,
				-9.396135425276952e-08,
				-1.9561754882602145e-08,
				0.7882054448127747
			],
			"scale":[
				1,
				0.9999999403953552,
				0.9999999403953552
			],
			"translation":[
				5.245366363482162e-09,
				0.12000000476837158,
				8.349392288664603e-10
			]
		},
		{
			"children":[
				3
			],
			"name":"RightLowerLeg",
			"translation":[
				5.245366363482162e-09,
				0.1199999749660492,
				8.349392288664603e-10
			]
		},
		{
			"children":[
				4
			],
			"name":"RightUpperLeg",
			"rotation":[
				4.371138828673793e-08,
				0,
				-1,
				0
			],
			"translation":[
				-0.18000000715255737,
				0,
				0
			]
		},
		{
			"name":"Head",
			"translation":[
				0,
				0.41999995708465576,
				0
			]
		},
		{
			"name":"LeftHand",
			"translation":[
				0,
				0.18000000715255737,
				0
			]
		},
		{
			"children":[
				7
			],
			"name":"LeftLowerArm",
			"rotation":[
				0,
				2.1855694143368964e-08,
				0,
				1
			],
			"translation":[
				-5.353371079763747e-10,
				0.24000003933906555,
				1.3113415908705406e-09
			]
		},
		{
			"children":[
				8
			],
			"name":"LeftUpperArm",
			"rotation":[
				-0.5,
				-0.5,
				-0.5,
				0.5
			],
			"scale":[
				1,
				0.9999999403953552,
				1
			],
			"translation":[
				0.30000001192092896,
				0.2399999499320984,
				0.029999999329447746
			]
		},
		{
			"name":"RightHand",
			"translation":[
				0,
				0.18000000715255737,
				0
			]
		},
		{
			"children":[
				10
			],
			"name":"RightLowerArm",
			"rotation":[
				0,
				-2.1855694143368964e-08,
				0,
				1
			],
			"translation":[
				5.353371079763747e-10,
				0.24000003933906555,
				1.3113415908705406e-09
			]
		},
		{
			"children":[
				11
			],
			"name":"RightUpperArm",
			"rotation":[
				-0.5,
				0.5,
				0.5,
				0.5
			],
			"scale":[
				1,
				0.9999999403953552,
				1
			],
			"translation":[
				-0.30000001192092896,
				0.2399999499320984,
				0.029999999329447746
			]
		},
		{
			"children":[
				6,
				9,
				12
			],
			"name":"Spine",
			"translation":[
				0,
				0.18000003695487976,
				0
			]
		},
		{
			"children":[
				2,
				5,
				13
			],
			"name":"Hips",
			"translation":[
				0,
				0.41999998688697815,
				-0.05999999865889549
			]
		},
		{
			"mesh":0,
			"name":"player_character_body",
			"skin":0
		},
		{
			"mesh":1,
			"name":"player_character_head",
			"skin":0
		},
		{
			"mesh":2,
			"name":"player_character_helmet",
			"skin":0
		},
		{
			"children":[
				15,
				16,
				17,
				14
			],
			"name":"player_character_armature"
		}
	],
	"animations":[
		{
			"channels":[
				{
					"sampler":0,
					"target":{
						"node":14,
						"path":"translation"
					}
				},
				{
					"sampler":1,
					"target":{
						"node":14,
						"path":"rotation"
					}
				},
				{
					"sampler":2,
					"target":{
						"node":14,
						"path":"scale"
					}
				},
				{
					"sampler":3,
					"target":{
						"node":2,
						"path":"translation"
					}
				},
				{
					"sampler":4,
					"target":{
						"node":2,
						"path":"rotation"
					}
				},
				{
					"sampler":5,
					"target":{
						"node":2,
						"path":"scale"
					}
				},
				{
					"sampler":6,
					"target":{
						"node":1,
						"path":"translation"
					}
				},
				{
					"sampler":7,
					"target":{
						"node":1,
						"path":"rotation"
					}
				},
				{
					"sampler":8,
					"target":{
						"node":1,
						"path":"scale"
					}
				},
				{
					"sampler":9,
					"target":{
						"node":0,
						"path":"translation"
					}
				},
				{
					"sampler":10,
					"target":{
						"node":0,
						"path":"rotation"
					}
				},
				{
					"sampler":11,
					"target":{
						"node":0,
						"path":"scale"
					}
				},
				{
					"sampler":12,
					"target":{
						"node":5,
						"path":"translation"
					}
				},
				{
					"sampler":13,
					"target":{
						"node":5,
						"path":"rotation"
					}
				},
				{
					"sampler":14,
					"target":{
						"node":5,
						"path":"scale"
					}
				},
				{
					"sampler":15,
					"target":{
						"node":4,
						"path":"translation"
					}
				},
				{
					"sampler":16,
					"target":{
						"node":4,
						"path":"rotation"
					}
				},
				{
					"sampler":17,
					"target":{
						"node":4,
						"path":"scale"
					}
				},
				{
					"sampler":18,
					"target":{
						"node":3,
						"path":"translation"
					}
				},
				{
					"sampler":19,
					"target":{
						"node":3,
						"path":"rotation"
					}
				},
				{
					"sampler":20,
					"target":{
						"node":3,
						"path":"scale"
					}
				},
				{
					"sampler":21,
					"target":{
						"node":13,
						"path":"translation"
					}
				},
				{
					"sampler":22,
					"target":{
						"node":13,
						"path":"rotation"
					}
				},
				{
					"sampler":23,
					"target":{
						"node":13,
						"path":"scale"
					}
				},
				{
					"sampler":24,
					"target":{
						"node":6,
						"path":"translation"
					}
				},
				{
					"sampler":25,
					"target":{
						"node":6,
						"path":"rotation"
					}
				},
				{
					"sampler":26,
					"target":{
						"node":6,
						"path":"scale"
					}
				},
				{
					"sampler":27,
					"target":{
						"node":9,
						"path":"translation"
					}
				},
				{
					"sampler":28,
					"target":{
						"node":9,
						"path":"rotation"
					}
				},
				{
					"sampler":29,
					"target":{
						"node":9,
						"path":"scale"
					}
				},
				{
					"sampler":30,
					"target":{
						"node":8,
						"path":"translation"
					}
				},
				{
					"sampler":31,
					"target":{
						"node":8,
						"path":"rotation"
					}
				},
				{
					"sampler":32,
					"target":{
						"node":8,
						"path":"scale"
					}
				},
				{
					"sampler":33,
					"target":{
						"node":7,
						"path":"translation"
					}
				},
				{
					"sampler":34,
					"target":{
						"node":7,
						"path":"rotation"
					}
				},
				{
					"sampler":35,
					"target":{
						"node":7,
						"path":"scale"
					}
				},
				{
					"sampler":36,
					"target":{
						"node":12,
						"path":"translation"
					}
				},
				{
					"sampler":37,
					"target":{
						"node":12,
						"path":"rotation"
					}
				},
				{
					"sampler":38,
					"target":{
						"node":12,
						"path":"scale"
					}
				},
				{
					"sampler":39,
					"target":{
						"node":11,
						"path":"translation"
					}
				},
				{
					"sampler":40,
					"target":{
						"node":11,
						"path":"rotation"
					}
				},
				{
					"sampler":41,
					"target":{
						"node":11,
						"path":"scale"
					}
				},
				{
					"sampler":42,
					"target":{
						"node":10,
						"path":"translation"
					}
				},
				{
					"sampler":43,
					"target":{
						"node":10,
						"path":"rotation"
					}
				},
				{
					"sampler":44,
					"target":{
						"node":10,
						"path":"scale"
					}
				}
			],
			"name":"idle_float-loop",
			"samplers":[
				{
					"input":19,
					"interpolation":"LINEAR",
					"output":20
				},
				{
					"input":19,
					"interpolation":"LINEAR",
					"output":21
				},
				{
					"input":19,
					"interpolation":"LINEAR",
					"output":22
				},
				{
					"input":19,
					"interpolation":"LINEAR",
					"output":23
				},
				{
					"input":19,
					"interpolation":"LINEAR",
					"output":24
				},
				{
					"input":19,
					"interpolation":"LINEAR",
					"output":25
				},
				{
					"input":19,
					"interpolation":"LINEAR",
					"output":26
				},
				{
					"input":19,
					"interpolation":"LINEAR",
					"output":27
				},
				{
					"input":19,
					"interpolation":"LINEAR",
					"output":28
				},
				{
					"input":19,
					"interpolation":"LINEAR",
					"output":29
				},
				{
					"input":19,
					"interpolation":"LINEAR",
					"output":30
				},
				{
					"input":19,
					"interpolation":"LINEAR",
					"output":31
				},
				{
					"input":19,
					"interpolation":"LINEAR",
					"output":32
				},
				{
					"input":19,
					"interpolation":"LINEAR",
					"output":33
				},
				{
					"input":19,
					"interpolation":"LINEAR",
					"output":34
				},
				{
					"input":19,
					"interpolation":"LINEAR",
					"output":35
				},
				{
					"input":19,
					"interpolation":"LINEAR",
					"output":36
				},
				{
					"input":19,
					"interpolation":"LINEAR",
					"output":37
				},
				{
					"input":19,
					"interpolation":"LINEAR",
					"output":38
				},
				{
					"input":19,
					"interpolation":"LINEAR",
					"output":39
				},
				{
					"input":19,
					"interpolation":"LINEAR",
					"output":40
				},
				{
					"input":19,
					"interpolation":"LINEAR",
					"output":41
				},
				{
					"input":19,
					"interpolation":"LINEAR",
					"output":42
				},
				{
					"input":19,
					"interpolation":"LINEAR",
					"output":43
				},
				{
					"input":19,
					"interpolation":"LINEAR",
					"output":44
				},
				{
					"input":19,
					"interpolation":"LINEAR",
					"output":45
				},
				{
					"input":19,
					"interpolation":"LINEAR",
					"output":46
				},
				{
					"input":19,
					"interpolation":"LINEAR",
					"output":47
				},
				{
					"input":19,
					"interpolation":"LINEAR",
					"output":48
				},
				{
					"input":19,
					"interpolation":"LINEAR",
					"output":49
				},
				{
					"input":19,
					"interpolation":"LINEAR",
					"output":50
				},
				{
					"input":19,
					"interpolation":"LINEAR",
					"output":51
				},
				{
					"input":19,
					"interpolation":"LINEAR",
					"output":52
				},
				{
					"input":19,
					"interpolation":"LINEAR",
					"output":53
				},
				{
					"input":19,
					"interpolation":"LINEAR",
					"output":54
				},
				{
					"input":19,
					"interpolation":"LINEAR",
					"output":55
				},
				{
					"input":19,
					"interpolation":"LINEAR",
					"output":56
				},
				{
					"input":19,
					"interpolation":"LINEAR",
					"output":57
				},
				{
					"input":19,
					"interpolation":"LINEAR",
					"output":58
				},
				{
					"input":19,
					"interpolation":"LINEAR",
					"output":59
				},
				{
					"input":19,
					"interpolation":"LINEAR",
					"output":60
				},
				{
					"input":19,
					"interpolation":"LINEAR",
					"output":61
				},
				{
					"input":19,
					"interpolation":"LINEAR",
					"output":62
				},
				{
					"input":19,
					"interpolation":"LINEAR",
					"output":63
				},
				{
					"input":19,
					"interpolation":"LINEAR",
					"output":64
				}
			]
		},
		{
			"channels":[
				{
					"sampler":0,
					"target":{
						"node":14,
						"path":"translation"
					}
				},
				{
					"sampler":1,
					"target":{
						"node":14,
						"path":"rotation"
					}
				},
				{
					"sampler":2,
					"target":{
						"node":14,
						"path":"scale"
					}
				},
				{
					"sampler":3,
					"target":{
						"node":2,
						"path":"translation"
					}
				},
				{
					"sampler":4,
					"target":{
						"node":2,
						"path":"rotation"
					}
				},
				{
					"sampler":5,
					"target":{
						"node":2,
						"path":"scale"
					}
				},
				{
					"sampler":6,
					"target":{
						"node":1,
						"path":"translation"
					}
				},
				{
					"sampler":7,
					"target":{
						"node":1,
						"path":"rotation"
					}
				},
				{
					"sampler":8,
					"target":{
						"node":1,
						"path":"scale"
					}
				},
				{
					"sampler":9,
					"target":{
						"node":0,
						"path":"translation"
					}
				},
				{
					"sampler":10,
					"target":{
						"node":0,
						"path":"rotation"
					}
				},
				{
					"sampler":11,
					"target":{
						"node":0,
						"path":"scale"
					}
				},
				{
					"sampler":12,
					"target":{
						"node":5,
						"path":"translation"
					}
				},
				{
					"sampler":13,
					"target":{
						"node":5,
						"path":"rotation"
					}
				},
				{
					"sampler":14,
					"target":{
						"node":5,
						"path":"scale"
					}
				},
				{
					"sampler":15,
					"target":{
						"node":4,
						"path":"translation"
					}
				},
				{
					"sampler":16,
					"target":{
						"node":4,
						"path":"rotation"
					}
				},
				{
					"sampler":17,
					"target":{
						"node":4,
						"path":"scale"
					}
				},
				{
					"sampler":18,
					"target":{
						"node":3,
						"path":"translation"
					}
				},
				{
					"sampler":19,
					"target":{
						"node":3,
						"path":"rotation"
					}
				},
				{
					"sampler":20,
					"target":{
						"node":3,
						"path":"scale"
					}
				},
				{
					"sampler":21,
					"target":{
						"node":13,
						"path":"translation"
					}
				},
				{
					"sampler":22,
					"target":{
						"node":13,
						"path":"rotation"
					}
				},
				{
					"sampler":23,
					"target":{
						"node":13,
						"path":"scale"
					}
				},
				{
					"sampler":24,
					"target":{
						"node":6,
						"path":"translation"
					}
				},
				{
					"sampler":25,
					"target":{
						"node":6,
						"path":"rotation"
					}
				},
				{
					"sampler":26,
					"target":{
						"node":6,
						"path":"scale"
					}
				},
				{
					"sampler":27,
					"target":{
						"node":9,
						"path":"translation"
					}
				},
				{
					"sampler":28,
					"target":{
						"node":9,
						"path":"rotation"
					}
				},
				{
					"sampler":29,
					"target":{
						"node":9,
						"path":"scale"
					}
				},
				{
					"sampler":30,
					"target":{
						"node":8,
						"path":"translation"
					}
				},
				{
					"sampler":31,
					"target":{
						"node":8,
						"path":"rotation"
					}
				},
				{
					"sampler":32,
					"target":{
						"node":8,
						"path":"scale"
					}
				},
				{
					"sampler":33,
					"target":{
						"node":7,
						"path":"translation"
					}
				},
				{
					"sampler":34,
					"target":{
						"node":7,
						"path":"rotation"
					}
				},
				{
					"sampler":35,
					"target":{
						"node":7,
						"path":"scale"
					}
				},
				{
					"sampler":36,
					"target":{
						"node":12,
						"path":"translation"
					}
				},
				{
					"sampler":37,
					"target":{
						"node":12,
						"path":"rotation"
					}
				},
				{
					"sampler":38,
					"target":{
						"node":12,
						"path":"scale"
					}
				},
				{
					"sampler":39,
					"target":{
						"node":11,
						"path":"translation"
					}
				},
				{
					"sampler":40,
					"target":{
						"node":11,
						"path":"rotation"
					}
				},
				{
					"sampler":41,
					"target":{
						"node":11,
						"path":"scale"
					}
				},
				{
					"sampler":42,
					"target":{
						"node":10,
						"path":"translation"
					}
				},
				{
					"sampler":43,
					"target":{
						"node":10,
						"path":"rotation"
					}
				},
				{
					"sampler":44,
					"target":{
						"node":10,
						"path":"scale"
					}
				}
			],
			"name":"laser_equip",
			"samplers":[
				{
					"input":65,
					"interpolation":"LINEAR",
					"output":66
				},
				{
					"input":65,
					"interpolation":"LINEAR",
					"output":67
				},
				{
					"input":65,
					"interpolation":"LINEAR",
					"output":68
				},
				{
					"input":65,
					"interpolation":"LINEAR",
					"output":69
				},
				{
					"input":65,
					"interpolation":"LINEAR",
					"output":70
				},
				{
					"input":65,
					"interpolation":"LINEAR",
					"output":71
				},
				{
					"input":65,
					"interpolation":"LINEAR",
					"output":72
				},
				{
					"input":65,
					"interpolation":"LINEAR",
					"output":73
				},
				{
					"input":65,
					"interpolation":"LINEAR",
					"output":74
				},
				{
					"input":65,
					"interpolation":"LINEAR",
					"output":75
				},
				{
					"input":65,
					"interpolation":"LINEAR",
					"output":76
				},
				{
					"input":65,
					"interpolation":"LINEAR",
					"output":77
				},
				{
					"input":65,
					"interpolation":"LINEAR",
					"output":78
				},
				{
					"input":65,
					"interpolation":"LINEAR",
					"output":79
				},
				{
					"input":65,
					"interpolation":"LINEAR",
					"output":80
				},
				{
					"input":65,
					"interpolation":"LINEAR",
					"output":81
				},
				{
					"input":65,
					"interpolation":"LINEAR",
					"output":82
				},
				{
					"input":65,
					"interpolation":"LINEAR",
					"output":83
				},
				{
					"input":65,
					"interpolation":"LINEAR",
					"output":84
				},
				{
					"input":65,
					"interpolation":"LINEAR",
					"output":85
				},
				{
					"input":65,
					"interpolation":"LINEAR",
					"output":86
				},
				{
					"input":65,
					"interpolation":"LINEAR",
					"output":87
				},
				{
					"input":65,
					"interpolation":"LINEAR",
					"output":88
				},
				{
					"input":65,
					"interpolation":"LINEAR",
					"output":89
				},
				{
					"input":65,
					"interpolation":"LINEAR",
					"output":90
				},
				{
					"input":65,
					"interpolation":"LINEAR",
					"output":91
				},
				{
					"input":65,
					"interpolation":"LINEAR",
					"output":92
				},
				{
					"input":65,
					"interpolation":"LINEAR",
					"output":93
				},
				{
					"input":65,
					"interpolation":"LINEAR",
					"output":94
				},
				{
					"input":65,
					"interpolation":"LINEAR",
					"output":95
				},
				{
					"input":65,
					"interpolation":"LINEAR",
					"output":96
				},
				{
					"input":65,
					"interpolation":"LINEAR",
					"output":97
				},
				{
					"input":65,
					"interpolation":"LINEAR",
					"output":98
				},
				{
					"input":65,
					"interpolation":"LINEAR",
					"output":99
				},
				{
					"input":65,
					"interpolation":"LINEAR",
					"output":100
				},
				{
					"input":65,
					"interpolation":"LINEAR",
					"output":101
				},
				{
					"input":65,
					"interpolation":"LINEAR",
					"output":102
				},
				{
					"input":65,
					"interpolation":"LINEAR",
					"output":103
				},
				{
					"input":65,
					"interpolation":"LINEAR",
					"output":104
				},
				{
					"input":65,
					"interpolation":"LINEAR",
					"output":105
				},
				{
					"input":65,
					"interpolation":"LINEAR",
					"output":106
				},
				{
					"input":65,
					"interpolation":"LINEAR",
					"output":107
				},
				{
					"input":65,
					"interpolation":"LINEAR",
					"output":108
				},
				{
					"input":65,
					"interpolation":"LINEAR",
					"output":109
				},
				{
					"input":65,
					"interpolation":"LINEAR",
					"output":110
				}
			]
		},
		{
			"channels":[
				{
					"sampler":0,
					"target":{
						"node":14,
						"path":"translation"
					}
				},
				{
					"sampler":1,
					"target":{
						"node":14,
						"path":"rotation"
					}
				},
				{
					"sampler":2,
					"target":{
						"node":14,
						"path":"scale"
					}
				},
				{
					"sampler":3,
					"target":{
						"node":2,
						"path":"translation"
					}
				},
				{
					"sampler":4,
					"target":{
						"node":2,
						"path":"rotation"
					}
				},
				{
					"sampler":5,
					"target":{
						"node":2,
						"path":"scale"
					}
				},
				{
					"sampler":6,
					"target":{
						"node":1,
						"path":"translation"
					}
				},
				{
					"sampler":7,
					"target":{
						"node":1,
						"path":"rotation"
					}
				},
				{
					"sampler":8,
					"target":{
						"node":1,
						"path":"scale"
					}
				},
				{
					"sampler":9,
					"target":{
						"node":0,
						"path":"translation"
					}
				},
				{
					"sampler":10,
					"target":{
						"node":0,
						"path":"rotation"
					}
				},
				{
					"sampler":11,
					"target":{
						"node":0,
						"path":"scale"
					}
				},
				{
					"sampler":12,
					"target":{
						"node":5,
						"path":"translation"
					}
				},
				{
					"sampler":13,
					"target":{
						"node":5,
						"path":"rotation"
					}
				},
				{
					"sampler":14,
					"target":{
						"node":5,
						"path":"scale"
					}
				},
				{
					"sampler":15,
					"target":{
						"node":4,
						"path":"translation"
					}
				},
				{
					"sampler":16,
					"target":{
						"node":4,
						"path":"rotation"
					}
				},
				{
					"sampler":17,
					"target":{
						"node":4,
						"path":"scale"
					}
				},
				{
					"sampler":18,
					"target":{
						"node":3,
						"path":"translation"
					}
				},
				{
					"sampler":19,
					"target":{
						"node":3,
						"path":"rotation"
					}
				},
				{
					"sampler":20,
					"target":{
						"node":3,
						"path":"scale"
					}
				},
				{
					"sampler":21,
					"target":{
						"node":13,
						"path":"translation"
					}
				},
				{
					"sampler":22,
					"target":{
						"node":13,
						"path":"rotation"
					}
				},
				{
					"sampler":23,
					"target":{
						"node":13,
						"path":"scale"
					}
				},
				{
					"sampler":24,
					"target":{
						"node":6,
						"path":"translation"
					}
				},
				{
					"sampler":25,
					"target":{
						"node":6,
						"path":"rotation"
					}
				},
				{
					"sampler":26,
					"target":{
						"node":6,
						"path":"scale"
					}
				},
				{
					"sampler":27,
					"target":{
						"node":9,
						"path":"translation"
					}
				},
				{
					"sampler":28,
					"target":{
						"node":9,
						"path":"rotation"
					}
				},
				{
					"sampler":29,
					"target":{
						"node":9,
						"path":"scale"
					}
				},
				{
					"sampler":30,
					"target":{
						"node":8,
						"path":"translation"
					}
				},
				{
					"sampler":31,
					"target":{
						"node":8,
						"path":"rotation"
					}
				},
				{
					"sampler":32,
					"target":{
						"node":8,
						"path":"scale"
					}
				},
				{
					"sampler":33,
					"target":{
						"node":7,
						"path":"translation"
					}
				},
				{
					"sampler":34,
					"target":{
						"node":7,
						"path":"rotation"
					}
				},
				{
					"sampler":35,
					"target":{
						"node":7,
						"path":"scale"
					}
				},
				{
					"sampler":36,
					"target":{
						"node":12,
						"path":"translation"
					}
				},
				{
					"sampler":37,
					"target":{
						"node":12,
						"path":"rotation"
					}
				},
				{
					"sampler":38,
					"target":{
						"node":12,
						"path":"scale"
					}
				},
				{
					"sampler":39,
					"target":{
						"node":11,
						"path":"translation"
					}
				},
				{
					"sampler":40,
					"target":{
						"node":11,
						"path":"rotation"
					}
				},
				{
					"sampler":41,
					"target":{
						"node":11,
						"path":"scale"
					}
				},
				{
					"sampler":42,
					"target":{
						"node":10,
						"path":"translation"
					}
				},
				{
					"sampler":43,
					"target":{
						"node":10,
						"path":"rotation"
					}
				},
				{
					"sampler":44,
					"target":{
						"node":10,
						"path":"scale"
					}
				}
			],
			"name":"laser_fire-loop",
			"samplers":[
				{
					"input":19,
					"interpolation":"LINEAR",
					"output":20
				},
				{
					"input":19,
					"interpolation":"LINEAR",
					"output":21
				},
				{
					"input":19,
					"interpolation":"LINEAR",
					"output":22
				},
				{
					"input":19,
					"interpolation":"LINEAR",
					"output":23
				},
				{
					"input":19,
					"interpolation":"LINEAR",
					"output":24
				},
				{
					"input":19,
					"interpolation":"LINEAR",
					"output":25
				},
				{
					"input":19,
					"interpolation":"LINEAR",
					"output":26
				},
				{
					"input":19,
					"interpolation":"LINEAR",
					"output":27
				},
				{
					"input":19,
					"interpolation":"LINEAR",
					"output":28
				},
				{
					"input":19,
					"interpolation":"LINEAR",
					"output":29
				},
				{
					"input":19,
					"interpolation":"LINEAR",
					"output":30
				},
				{
					"input":19,
					"interpolation":"LINEAR",
					"output":31
				},
				{
					"input":19,
					"interpolation":"LINEAR",
					"output":32
				},
				{
					"input":19,
					"interpolation":"LINEAR",
					"output":33
				},
				{
					"input":19,
					"interpolation":"LINEAR",
					"output":34
				},
				{
					"input":19,
					"interpolation":"LINEAR",
					"output":35
				},
				{
					"input":19,
					"interpolation":"LINEAR",
					"output":36
				},
				{
					"input":19,
					"interpolation":"LINEAR",
					"output":37
				},
				{
					"input":19,
					"interpolation":"LINEAR",
					"output":38
				},
				{
					"input":19,
					"interpolation":"LINEAR",
					"output":39
				},
				{
					"input":19,
					"interpolation":"LINEAR",
					"output":40
				},
				{
					"input":19,
					"interpolation":"LINEAR",
					"output":41
				},
				{
					"input":19,
					"interpolation":"LINEAR",
					"output":42
				},
				{
					"input":19,
					"interpolation":"LINEAR",
					"output":43
				},
				{
					"input":19,
					"interpolation":"LINEAR",
					"output":44
				},
				{
					"input":19,
					"interpolation":"LINEAR",
					"output":45
				},
				{
					"input":19,
					"interpolation":"LINEAR",
					"output":46
				},
				{
					"input":19,
					"interpolation":"LINEAR",
					"output":47
				},
				{
					"input":19,
					"interpolation":"LINEAR",
					"output":48
				},
				{
					"input":19,
					"interpolation":"LINEAR",
					"output":49
				},
				{
					"input":19,
					"interpolation":"LINEAR",
					"output":50
				},
				{
					"input":19,
					"interpolation":"LINEAR",
					"output":51
				},
				{
					"input":19,
					"interpolation":"LINEAR",
					"output":52
				},
				{
					"input":19,
					"interpolation":"LINEAR",
					"output":53
				},
				{
					"input":19,
					"interpolation":"LINEAR",
					"output":54
				},
				{
					"input":19,
					"interpolation":"LINEAR",
					"output":55
				},
				{
					"input":19,
					"interpolation":"LINEAR",
					"output":56
				},
				{
					"input":19,
					"interpolation":"LINEAR",
					"output":111
				},
				{
					"input":19,
					"interpolation":"LINEAR",
					"output":112
				},
				{
					"input":19,
					"interpolation":"LINEAR",
					"output":113
				},
				{
					"input":19,
					"interpolation":"LINEAR",
					"output":114
				},
				{
					"input":19,
					"interpolation":"LINEAR",
					"output":115
				},
				{
					"input":19,
					"interpolation":"LINEAR",
					"output":116
				},
				{
					"input":19,
					"interpolation":"LINEAR",
					"output":117
				},
				{
					"input":19,
					"interpolation":"LINEAR",
					"output":118
				}
			]
		},
		{
			"channels":[
				{
					"sampler":0,
					"target":{
						"node":14,
						"path":"translation"
					}
				},
				{
					"sampler":1,
					"target":{
						"node":14,
						"path":"rotation"
					}
				},
				{
					"sampler":2,
					"target":{
						"node":14,
						"path":"scale"
					}
				},
				{
					"sampler":3,
					"target":{
						"node":2,
						"path":"translation"
					}
				},
				{
					"sampler":4,
					"target":{
						"node":2,
						"path":"rotation"
					}
				},
				{
					"sampler":5,
					"target":{
						"node":2,
						"path":"scale"
					}
				},
				{
					"sampler":6,
					"target":{
						"node":1,
						"path":"translation"
					}
				},
				{
					"sampler":7,
					"target":{
						"node":1,
						"path":"rotation"
					}
				},
				{
					"sampler":8,
					"target":{
						"node":1,
						"path":"scale"
					}
				},
				{
					"sampler":9,
					"target":{
						"node":0,
						"path":"translation"
					}
				},
				{
					"sampler":10,
					"target":{
						"node":0,
						"path":"rotation"
					}
				},
				{
					"sampler":11,
					"target":{
						"node":0,
						"path":"scale"
					}
				},
				{
					"sampler":12,
					"target":{
						"node":5,
						"path":"translation"
					}
				},
				{
					"sampler":13,
					"target":{
						"node":5,
						"path":"rotation"
					}
				},
				{
					"sampler":14,
					"target":{
						"node":5,
						"path":"scale"
					}
				},
				{
					"sampler":15,
					"target":{
						"node":4,
						"path":"translation"
					}
				},
				{
					"sampler":16,
					"target":{
						"node":4,
						"path":"rotation"
					}
				},
				{
					"sampler":17,
					"target":{
						"node":4,
						"path":"scale"
					}
				},
				{
					"sampler":18,
					"target":{
						"node":3,
						"path":"translation"
					}
				},
				{
					"sampler":19,
					"target":{
						"node":3,
						"path":"rotation"
					}
				},
				{
					"sampler":20,
					"target":{
						"node":3,
						"path":"scale"
					}
				},
				{
					"sampler":21,
					"target":{
						"node":13,
						"path":"translation"
					}
				},
				{
					"sampler":22,
					"target":{
						"node":13,
						"path":"rotation"
					}
				},
				{
					"sampler":23,
					"target":{
						"node":13,
						"path":"scale"
					}
				},
				{
					"sampler":24,
					"target":{
						"node":6,
						"path":"translation"
					}
				},
				{
					"sampler":25,
					"target":{
						"node":6,
						"path":"rotation"
					}
				},
				{
					"sampler":26,
					"target":{
						"node":6,
						"path":"scale"
					}
				},
				{
					"sampler":27,
					"target":{
						"node":9,
						"path":"translation"
					}
				},
				{
					"sampler":28,
					"target":{
						"node":9,
						"path":"rotation"
					}
				},
				{
					"sampler":29,
					"target":{
						"node":9,
						"path":"scale"
					}
				},
				{
					"sampler":30,
					"target":{
						"node":8,
						"path":"translation"
					}
				},
				{
					"sampler":31,
					"target":{
						"node":8,
						"path":"rotation"
					}
				},
				{
					"sampler":32,
					"target":{
						"node":8,
						"path":"scale"
					}
				},
				{
					"sampler":33,
					"target":{
						"node":7,
						"path":"translation"
					}
				},
				{
					"sampler":34,
					"target":{
						"node":7,
						"path":"rotation"
					}
				},
				{
					"sampler":35,
					"target":{
						"node":7,
						"path":"scale"
					}
				},
				{
					"sampler":36,
					"target":{
						"node":12,
						"path":"translation"
					}
				},
				{
					"sampler":37,
					"target":{
						"node":12,
						"path":"rotation"
					}
				},
				{
					"sampler":38,
					"target":{
						"node":12,
						"path":"scale"
					}
				},
				{
					"sampler":39,
					"target":{
						"node":11,
						"path":"translation"
					}
				},
				{
					"sampler":40,
					"target":{
						"node":11,
						"path":"rotation"
					}
				},
				{
					"sampler":41,
					"target":{
						"node":11,
						"path":"scale"
					}
				},
				{
					"sampler":42,
					"target":{
						"node":10,
						"path":"translation"
					}
				},
				{
					"sampler":43,
					"target":{
						"node":10,
						"path":"rotation"
					}
				},
				{
					"sampler":44,
					"target":{
						"node":10,
						"path":"scale"
					}
				}
			],
			"name":"laser_hold-loop",
			"samplers":[
				{
					"input":19,
					"interpolation":"LINEAR",
					"output":20
				},
				{
					"input":19,
					"interpolation":"LINEAR",
					"output":21
				},
				{
					"input":19,
					"interpolation":"LINEAR",
					"output":22
				},
				{
					"input":19,
					"interpolation":"LINEAR",
					"output":23
				},
				{
					"input":19,
					"interpolation":"LINEAR",
					"output":24
				},
				{
					"input":19,
					"interpolation":"LINEAR",
					"output":25
				},
				{
					"input":19,
					"interpolation":"LINEAR",
					"output":26
				},
				{
					"input":19,
					"interpolation":"LINEAR",
					"output":27
				},
				{
					"input":19,
					"interpolation":"LINEAR",
					"output":28
				},
				{
					"input":19,
					"interpolation":"LINEAR",
					"output":29
				},
				{
					"input":19,
					"interpolation":"LINEAR",
					"output":30
				},
				{
					"input":19,
					"interpolation":"LINEAR",
					"output":31
				},
				{
					"input":19,
					"interpolation":"LINEAR",
					"output":32
				},
				{
					"input":19,
					"interpolation":"LINEAR",
					"output":33
				},
				{
					"input":19,
					"interpolation":"LINEAR",
					"output":34
				},
				{
					"input":19,
					"interpolation":"LINEAR",
					"output":35
				},
				{
					"input":19,
					"interpolation":"LINEAR",
					"output":36
				},
				{
					"input":19,
					"interpolation":"LINEAR",
					"output":37
				},
				{
					"input":19,
					"interpolation":"LINEAR",
					"output":38
				},
				{
					"input":19,
					"interpolation":"LINEAR",
					"output":39
				},
				{
					"input":19,
					"interpolation":"LINEAR",
					"output":40
				},
				{
					"input":19,
					"interpolation":"LINEAR",
					"output":41
				},
				{
					"input":19,
					"interpolation":"LINEAR",
					"output":42
				},
				{
					"input":19,
					"interpolation":"LINEAR",
					"output":43
				},
				{
					"input":19,
					"interpolation":"LINEAR",
					"output":44
				},
				{
					"input":19,
					"interpolation":"LINEAR",
					"output":45
				},
				{
					"input":19,
					"interpolation":"LINEAR",
					"output":46
				},
				{
					"input":19,
					"interpolation":"LINEAR",
					"output":47
				},
				{
					"input":19,
					"interpolation":"LINEAR",
					"output":48
				},
				{
					"input":19,
					"interpolation":"LINEAR",
					"output":49
				},
				{
					"input":19,
					"interpolation":"LINEAR",
					"output":50
				},
				{
					"input":19,
					"interpolation":"LINEAR",
					"output":51
				},
				{
					"input":19,
					"interpolation":"LINEAR",
					"output":52
				},
				{
					"input":19,
					"interpolation":"LINEAR",
					"output":53
				},
				{
					"input":19,
					"interpolation":"LINEAR",
					"output":54
				},
				{
					"input":19,
					"interpolation":"LINEAR",
					"output":55
				},
				{
					"input":19,
					"interpolation":"LINEAR",
					"output":56
				},
				{
					"input":19,
					"interpolation":"LINEAR",
					"output":119
				},
				{
					"input":19,
					"interpolation":"LINEAR",
					"output":120
				},
				{
					"input":19,
					"interpolation":"LINEAR",
					"output":121
				},
				{
					"input":19,
					"interpolation":"LINEAR",
					"output":122
				},
				{
					"input":19,
					"interpolation":"LINEAR",
					"output":123
				},
				{
					"input":19,
					"interpolation":"LINEAR",
					"output":124
				},
				{
					"input":19,
					"interpolation":"LINEAR",
					"output":125
				},
				{
					"input":19,
					"interpolation":"LINEAR",
					"output":126
				}
			]
		},
		{
			"channels":[
				{
					"sampler":0,
					"target":{
						"node":14,
						"path":"translation"
					}
				},
				{
					"sampler":1,
					"target":{
						"node":14,
						"path":"rotation"
					}
				},
				{
					"sampler":2,
					"target":{
						"node":14,
						"path":"scale"
					}
				},
				{
					"sampler":3,
					"target":{
						"node":2,
						"path":"translation"
					}
				},
				{
					"sampler":4,
					"target":{
						"node":2,
						"path":"rotation"
					}
				},
				{
					"sampler":5,
					"target":{
						"node":2,
						"path":"scale"
					}
				},
				{
					"sampler":6,
					"target":{
						"node":1,
						"path":"translation"
					}
				},
				{
					"sampler":7,
					"target":{
						"node":1,
						"path":"rotation"
					}
				},
				{
					"sampler":8,
					"target":{
						"node":1,
						"path":"scale"
					}
				},
				{
					"sampler":9,
					"target":{
						"node":0,
						"path":"translation"
					}
				},
				{
					"sampler":10,
					"target":{
						"node":0,
						"path":"rotation"
					}
				},
				{
					"sampler":11,
					"target":{
						"node":0,
						"path":"scale"
					}
				},
				{
					"sampler":12,
					"target":{
						"node":5,
						"path":"translation"
					}
				},
				{
					"sampler":13,
					"target":{
						"node":5,
						"path":"rotation"
					}
				},
				{
					"sampler":14,
					"target":{
						"node":5,
						"path":"scale"
					}
				},
				{
					"sampler":15,
					"target":{
						"node":4,
						"path":"translation"
					}
				},
				{
					"sampler":16,
					"target":{
						"node":4,
						"path":"rotation"
					}
				},
				{
					"sampler":17,
					"target":{
						"node":4,
						"path":"scale"
					}
				},
				{
					"sampler":18,
					"target":{
						"node":3,
						"path":"translation"
					}
				},
				{
					"sampler":19,
					"target":{
						"node":3,
						"path":"rotation"
					}
				},
				{
					"sampler":20,
					"target":{
						"node":3,
						"path":"scale"
					}
				},
				{
					"sampler":21,
					"target":{
						"node":13,
						"path":"translation"
					}
				},
				{
					"sampler":22,
					"target":{
						"node":13,
						"path":"rotation"
					}
				},
				{
					"sampler":23,
					"target":{
						"node":13,
						"path":"scale"
					}
				},
				{
					"sampler":24,
					"target":{
						"node":6,
						"path":"translation"
					}
				},
				{
					"sampler":25,
					"target":{
						"node":6,
						"path":"rotation"
					}
				},
				{
					"sampler":26,
					"target":{
						"node":6,
						"path":"scale"
					}
				},
				{
					"sampler":27,
					"target":{
						"node":9,
						"path":"translation"
					}
				},
				{
					"sampler":28,
					"target":{
						"node":9,
						"path":"rotation"
					}
				},
				{
					"sampler":29,
					"target":{
						"node":9,
						"path":"scale"
					}
				},
				{
					"sampler":30,
					"target":{
						"node":8,
						"path":"translation"
					}
				},
				{
					"sampler":31,
					"target":{
						"node":8,
						"path":"rotation"
					}
				},
				{
					"sampler":32,
					"target":{
						"node":8,
						"path":"scale"
					}
				},
				{
					"sampler":33,
					"target":{
						"node":7,
						"path":"translation"
					}
				},
				{
					"sampler":34,
					"target":{
						"node":7,
						"path":"rotation"
					}
				},
				{
					"sampler":35,
					"target":{
						"node":7,
						"path":"scale"
					}
				},
				{
					"sampler":36,
					"target":{
						"node":12,
						"path":"translation"
					}
				},
				{
					"sampler":37,
					"target":{
						"node":12,
						"path":"rotation"
					}
				},
				{
					"sampler":38,
					"target":{
						"node":12,
						"path":"scale"
					}
				},
				{
					"sampler":39,
					"target":{
						"node":11,
						"path":"translation"
					}
				},
				{
					"sampler":40,
					"target":{
						"node":11,
						"path":"rotation"
					}
				},
				{
					"sampler":41,
					"target":{
						"node":11,
						"path":"scale"
					}
				},
				{
					"sampler":42,
					"target":{
						"node":10,
						"path":"translation"
					}
				},
				{
					"sampler":43,
					"target":{
						"node":10,
						"path":"rotation"
					}
				},
				{
					"sampler":44,
					"target":{
						"node":10,
						"path":"scale"
					}
				}
			],
			"name":"laser_stow",
			"samplers":[
				{
					"input":65,
					"interpolation":"LINEAR",
					"output":66
				},
				{
					"input":65,
					"interpolation":"LINEAR",
					"output":67
				},
				{
					"input":65,
					"interpolation":"LINEAR",
					"output":68
				},
				{
					"input":65,
					"interpolation":"LINEAR",
					"output":69
				},
				{
					"input":65,
					"interpolation":"LINEAR",
					"output":70
				},
				{
					"input":65,
					"interpolation":"LINEAR",
					"output":71
				},
				{
					"input":65,
					"interpolation":"LINEAR",
					"output":72
				},
				{
					"input":65,
					"interpolation":"LINEAR",
					"output":73
				},
				{
					"input":65,
					"interpolation":"LINEAR",
					"output":74
				},
				{
					"input":65,
					"interpolation":"LINEAR",
					"output":75
				},
				{
					"input":65,
					"interpolation":"LINEAR",
					"output":76
				},
				{
					"input":65,
					"interpolation":"LINEAR",
					"output":77
				},
				{
					"input":65,
					"interpolation":"LINEAR",
					"output":78
				},
				{
					"input":65,
					"interpolation":"LINEAR",
					"output":79
				},
				{
					"input":65,
					"interpolation":"LINEAR",
					"output":80
				},
				{
					"input":65,
					"interpolation":"LINEAR",
					"output":81
				},
				{
					"input":65,
					"interpolation":"LINEAR",
					"output":82
				},
				{
					"input":65,
					"interpolation":"LINEAR",
					"output":83
				},
				{
					"input":65,
					"interpolation":"LINEAR",
					"output":84
				},
				{
					"input":65,
					"interpolation":"LINEAR",
					"output":85
				},
				{
					"input":65,
					"interpolation":"LINEAR",
					"output":86
				},
				{
					"input":65,
					"interpolation":"LINEAR",
					"output":87
				},
				{
					"input":65,
					"interpolation":"LINEAR",
					"output":88
				},
				{
					"input":65,
					"interpolation":"LINEAR",
					"output":89
				},
				{
					"input":65,
					"interpolation":"LINEAR",
					"output":90
				},
				{
					"input":65,
					"interpolation":"LINEAR",
					"output":91
				},
				{
					"input":65,
					"interpolation":"LINEAR",
					"output":92
				},
				{
					"input":65,
					"interpolation":"LINEAR",
					"output":93
				},
				{
					"input":65,
					"interpolation":"LINEAR",
					"output":94
				},
				{
					"input":65,
					"interpolation":"LINEAR",
					"output":95
				},
				{
					"input":65,
					"interpolation":"LINEAR",
					"output":96
				},
				{
					"input":65,
					"interpolation":"LINEAR",
					"output":97
				},
				{
					"input":65,
					"interpolation":"LINEAR",
					"output":98
				},
				{
					"input":65,
					"interpolation":"LINEAR",
					"output":99
				},
				{
					"input":65,
					"interpolation":"LINEAR",
					"output":100
				},
				{
					"input":65,
					"interpolation":"LINEAR",
					"output":101
				},
				{
					"input":65,
					"interpolation":"LINEAR",
					"output":102
				},
				{
					"input":65,
					"interpolation":"LINEAR",
					"output":127
				},
				{
					"input":65,
					"interpolation":"LINEAR",
					"output":128
				},
				{
					"input":65,
					"interpolation":"LINEAR",
					"output":129
				},
				{
					"input":65,
					"interpolation":"LINEAR",
					"output":130
				},
				{
					"input":65,
					"interpolation":"LINEAR",
					"output":131
				},
				{
					"input":65,
					"interpolation":"LINEAR",
					"output":132
				},
				{
					"input":65,
					"interpolation":"LINEAR",
					"output":133
				},
				{
					"input":65,
					"interpolation":"LINEAR",
					"output":134
				}
			]
		}
	],
	"materials":[
		{
			"name":"Material.005",
			"pbrMetallicRoughness":{
				"baseColorTexture":{
					"index":0
				},
				"metallicFactor":0.20000000298023224,
				"roughnessFactor":0.800000011920929
			}
		},
		{
			"name":"Material.006",
			"pbrMetallicRoughness":{
				"baseColorTexture":{
					"index":1
				},
				"roughnessFactor":0.5
			}
		}
	],
	"meshes":[
		{
			"name":"player_character_body",
			"primitives":[
				{
					"attributes":{
						"POSITION":0,
						"NORMAL":1,
						"TEXCOORD_0":2,
						"JOINTS_0":3,
						"WEIGHTS_0":4
					},
					"indices":5,
					"material":0
				}
			]
		},
		{
			"name":"player_character_head",
			"primitives":[
				{
					"attributes":{
						"POSITION":7,
						"NORMAL":8,
						"TEXCOORD_0":9,
						"JOINTS_0":10,
						"WEIGHTS_0":11
					},
					"indices":12,
					"material":0
				}
			]
		},
		{
			"name":"player_character_helmet",
			"primitives":[
				{
					"attributes":{
						"POSITION":13,
						"NORMAL":14,
						"TEXCOORD_0":15,
						"JOINTS_0":16,
						"WEIGHTS_0":17
					},
					"indices":18,
					"material":1
				}
			]
		}
	],
	"textures":[
		{
			"sampler":0,
			"source":0
		},
		{
			"sampler":0,
			"source":0
		}
	],
	"images":[
		{
			"mimeType":"image/png",
			"name":"t_player_character",
			"uri":"t_player_character.png"
		}
	],
	"skins":[
		{
			"inverseBindMatrices":6,
			"joints":[
				14,
				2,
				1,
				0,
				5,
				4,
				3,
				13,
				6,
				9,
				8,
				7,
				12,
				11,
				10
			],
			"name":"player_character_armature"
		}
	],
	"accessors":[
		{
			"bufferView":0,
			"componentType":5126,
			"count":2876,
			"max":[
				0.8999999761581421,
				1.0800001621246338,
				0.24000000953674316
			],
			"min":[
				-0.8999999761581421,
				-5.45303322496693e-08,
				-0.3600003123283386
			],
			"type":"VEC3"
		},
		{
			"bufferView":1,
			"componentType":5126,
			"count":2876,
			"type":"VEC3"
		},
		{
			"bufferView":2,
			"componentType":5126,
			"count":2876,
			"type":"VEC2"
		},
		{
			"bufferView":3,
			"componentType":5121,
			"count":2876,
			"type":"VEC4"
		},
		{
			"bufferView":4,
			"componentType":5126,
			"count":2876,
			"type":"VEC4"
		},
		{
			"bufferView":5,
			"componentType":5123,
			"count":6597,
			"type":"SCALAR"
		},
		{
			"bufferView":6,
			"componentType":5126,
			"count":15,
			"type":"MAT4"
		},
		{
			"bufferView":7,
			"componentType":5126,
			"count":960,
			"max":[
				0.41999998688697815,
				1.4999998807907104,
				0.2999996244907379
			],
			"min":[
				-0.41999998688697815,
				1.0199998617172241,
				-0.36000046133995056
			],
			"type":"VEC3"
		},
		{
			"bufferView":8,
			"componentType":5126,
			"count":960,
			"type":"VEC3"
		},
		{
			"bufferView":9,
			"componentType":5126,
			"count":960,
			"type":"VEC2"
		},
		{
			"bufferView":10,
			"componentType":5121,
			"count":960,
			"type":"VEC4"
		},
		{
			"bufferView":11,
			"componentType":5126,
			"count":960,
			"type":"VEC4"
		},
		{
			"bufferView":12,
			"componentType":5123,
			"count":2295,
			"type":"SCALAR"
		},
		{
			"bufferView":13,
			"componentType":5126,
			"count":1262,
			"max":[
				0.35999998450279236,
				1.5600001811981201,
				0.2399996817111969
			],
			"min":[
				-0.35999998450279236,
				1.0799999237060547,
				-0.30000048875808716
			],
			"type":"VEC3"
		},
		{
			"bufferView":14,
			"componentType":5126,
			"count":1262,
			"type":"VEC3"
		},
		{
			"bufferView":15,
			"componentType":5126,
			"count":1262,
			"type":"VEC2"
		},
		{
			"bufferView":16,
			"componentType":5121,
			"count":1262,
			"type":"VEC4"
		},
		{
			"bufferView":17,
			"componentType":5126,
			"count":1262,
			"type":"VEC4"
		},
		{
			"bufferView":18,
			"componentType":5123,
			"count":4416,
			"type":"SCALAR"
		},
		{
			"bufferView":19,
			"componentType":5126,
			"count":121,
			"max":[
				4
			],
			"min":[
				0
			],
			"type":"SCALAR"
		},
		{
			"bufferView":20,
			"componentType":5126,
			"count":121,
			"type":"VEC3"
		},
		{
			"bufferView":21,
			"componentType":5126,
			"count":121,
			"type":"VEC4"
		},
		{
			"bufferView":22,
			"componentType":5126,
			"count":121,
			"type":"VEC3"
		},
		{
			"bufferView":23,
			"componentType":5126,
			"count":121,
			"type":"VEC3"
		},
		{
			"bufferView":24,
			"componentType":5126,
			"count":121,
			"type":"VEC4"
		},
		{
			"bufferView":25,
			"componentType":5126,
			"count":121,
			"type":"VEC3"
		},
		{
			"bufferView":26,
			"componentType":5126,
			"count":121,
			"type":"VEC3"
		},
		{
			"bufferView":27,
			"componentType":5126,
			"count":121,
			"type":"VEC4"
		},
		{
			"bufferView":28,
			"componentType":5126,
			"count":121,
			"type":"VEC3"
		},
		{
			"bufferView":29,
			"componentType":5126,
			"count":121,
			"type":"VEC3"
		},
		{
			"bufferView":30,
			"componentType":5126,
			"count":121,
			"type":"VEC4"
		},
		{
			"bufferView":31,
			"componentType":5126,
			"count":121,
			"type":"VEC3"
		},
		{
			"bufferView":32,
			"componentType":5126,
			"count":121,
			"type":"VEC3"
		},
		{
			"bufferView":33,
			"componentType":5126,
			"count":121,
			"type":"VEC4"
		},
		{
			"bufferView":34,
			"componentType":5126,
			"count":121,
			"type":"VEC3"
		},
		{
			"bufferView":35,
			"componentType":5126,
			"count":121,
			"type":"VEC3"
		},
		{
			"bufferView":36,
			"componentType":5126,
			"count":121,
			"type":"VEC4"
		},
		{
			"bufferView":37,
			"componentType":5126,
			"count":121,
			"type":"VEC3"
		},
		{
			"bufferView":38,
			"componentType":5126,
			"count":121,
			"type":"VEC3"
		},
		{
			"bufferView":39,
			"componentType":5126,
			"count":121,
			"type":"VEC4"
		},
		{
			"bufferView":40,
			"componentType":5126,
			"count":121,
			"type":"VEC3"
		},
		{
			"bufferView":41,
			"componentType":5126,
			"count":121,
			"type":"VEC3"
		},
		{
			"bufferView":42,
			"componentType":5126,
			"count":121,
			"type":"VEC4"
		},
		{
			"bufferView":43,
			"componentType":5126,
			"count":121,
			"type":"VEC3"
		},
		{
			"bufferView":44,
			"componentType":5126,
			"count":121,
			"type":"VEC3"
		},
		{
			"bufferView":45,
			"componentType":5126,
			"count":121,
			"type":"VEC4"
		},
		{
			"bufferView":46,
			"componentType":5126,
			"count":121,
			"type":"VEC3"
		},
		{
			"bufferView":47,
			"componentType":5126,
			"count":121,
			"type":"VEC3"
		},
		{
			"bufferView":48,
			"componentType":5126,
			"count":121,
			"type":"VEC4"
		},
		{
			"bufferView":49,
			"componentType":5126,
			"count":121,
			"type":"VEC3"
		},
		{
			"bufferView":50,
			"componentType":5126,
			"count":121,
			"type":"VEC3"
		},
		{
			"bufferView":51,
			"componentType":5126,
			"count":121,
			"type":"VEC4"
		},
		{
			"bufferView":52,
			"componentType":5126,
			"count":121,
			"type":"VEC3"
		},
		{
			"bufferView":53,
			"componentType":5126,
			"count":121,
			"type":"VEC3"
		},
		{
			"bufferView":54,
			"componentType":5126,
			"count":121,
			"type":"VEC4"
		},
		{
			"bufferView":55,
			"componentType":5126,
			"count":121,
			"type":"VEC3"
		},
		{
			"bufferView":56,
			"componentType":5126,
			"count":121,
			"type":"VEC3"
		},
		{
			"bufferView":57,
			"componentType":5126,
			"count":121,
			"type":"VEC4"
		},
		{
			"bufferView":58,
			"componentType":5126,
			"count":121,
			"type":"VEC3"
		},
		{
			"bufferView":59,
			"componentType":5126,
			"count":121,
			"type":"VEC3"
		},
		{
			"bufferView":60,
			"componentType":5126,
			"count":121,
			"type":"VEC4"
		},
		{
			"bufferView":61,
			"componentType":5126,
			"count":121,
			"type":"VEC3"
		},
		{
			"bufferView":62,
			"componentType":5126,
			"count":121,
			"type":"VEC3"
		},
		{
			"bufferView":63,
			"componentType":5126,
			"count":121,
			"type":"VEC4"
		},
		{
			"bufferView":64,
			"componentType":5126,
			"count":121,
			"type":"VEC3"
		},
		{
			"bufferView":65,
			"componentType":5126,
			"count":25,
			"max":[
				0.8
			],
			"min":[
				0
			],
			"type":"SCALAR"
		},
		{
			"bufferView":66,
			"componentType":5126,
			"count":25,
			"type":"VEC3"
		},
		{
			"bufferView":67,
			"componentType":5126,
			"count":25,
			"type":"VEC4"
		},
		{
			"bufferView":68,
			"componentType":5126,
			"count":25,
			"type":"VEC3"
		},
		{
			"bufferView":69,
			"componentType":5126,
			"count":25,
			"type":"VEC3"
		},
		{
			"bufferView":70,
			"componentType":5126,
			"count":25,
			"type":"VEC4"
		},
		{
			"bufferView":71,
			"componentType":5126,
			"count":25,
			"type":"VEC3"
		},
		{
			"bufferView":72,
			"componentType":5126,
			"count":25,
			"type":"VEC3"
		},
		{
			"bufferView":73,
			"componentType":5126,
			"count":25,
			"type":"VEC4"
		},
		{
			"bufferView":74,
			"componentType":5126,
			"count":25,
			"type":"VEC3"
		},
		{
			"bufferView":75,
			"componentType":5126,
			"count":25,
			"type":"VEC3"
		},
		{
			"bufferView":76,
			"componentType":5126,
			"count":25,
			"type":"VEC4"
		},
		{
			"bufferView":77,
			"componentType":5126,
			"count":25,
			"type":"VEC3"
		},
		{
			"bufferView":78,
			"componentType":5126,
			"count":25,
			"type":"VEC3"
		},
		{
			"bufferView":79,
			"componentType":5126,
			"count":25,
			"type":"VEC4"
		},
		{
			"bufferView":80,
			"componentType":5126,
			"count":25,
			"type":"VEC3"
		},
		{
			"bufferView":81,
			"componentType":5126,
			"count":25,
			"type":"VEC3"
		},
		{
			"bufferView":82,
			"componentType":5126,
			"count":25,
			"type":"VEC4"
		},
		{
			"bufferView":83,
			"componentType":5126,
			"count":25,
			"type":"VEC3"
		},
		{
			"bufferView":84,
			"componentType":5126,
			"count":25,
			"type":"VEC3"
		},
		{
			"bufferView":85,
			"componentType":5126,
			"count":25,
			"type":"VEC4"
		},
		{
			"bufferView":86,
			"componentType":5126,
			"count":25,
			"type":"VEC3"
		},
		{
			"bufferView":87,
			"componentType":5126,
			"count":25,
			"type":"VEC3"
		},
		{
			"bufferView":88,
			"componentType":5126,
			"count":25,
			"type":"VEC4"
		},
		{
			"bufferView":89,
			"componentType":5126,
			"count":25,
			"type":"VEC3"
		},
		{
			"bufferView":90,
			"componentType":5126,
			"count":25,
			"type":"VEC3"
		},
		{
			"bufferView":91,
			"componentType":5126,
			"count":25,
			"type":"VEC4"
		},
		{
			"bufferView":92,
			"componentType":5126,
			"count":25,
			"type":"VEC3"
		},
		{
			"bufferView":93,
			"componentType":5126,
			"count":25,
			"type":"VEC3"
		},
		{
			"bufferView":94,
			"componentType":5126,
			"count":25,
			"type":"VEC4"
		},
		{
			"bufferView":95,
			"componentType":5126,
			"count":25,
			"type":"VEC3"
		},
		{
			"bufferView":96,
			"componentType":5126,
			"count":25,
			"type":"VEC3"
		},
		{
			"bufferView":97,
			"componentType":5126,
			"count":25,
			"type":"VEC4"
		},
		{
			"bufferView":98,
			"componentType":5126,
			"count":25,
			"type":"VEC3"
		},
		{
			"bufferView":99,
			"componentType":5126,
			"count":25,
			"type":"VEC3"
		},
		{
			"bufferView":100,
			"componentType":5126,
			"count":25,
			"type":"VEC4"
		},
		{
			"bufferView":101,
			"componentType":5126,
			"count":25,
			"type":"VEC3"
		},
		{
			"bufferView":102,
			"componentType":5126,
			"count":25,
			"type":"VEC3"
		},
		{
			"bufferView":103,
			"componentType":5126,
			"count":25,
			"type":"VEC4"
		},
		{
			"bufferView":104,
			"componentType":5126,
			"count":25,
			"type":"VEC3"
		},
		{
			"bufferView":105,
			"componentType":5126,
			"count":25,
			"type":"VEC3"
		},
		{
			"bufferView":106,
			"componentType":5126,
			"count":25,
			"type":"VEC4"
		},
		{
			"bufferView":107,
			"componentType":5126,
			"count":25,
			"type":"VEC3"
		},
		{
			"bufferView":108,
			"componentType":5126,
			"count":25,
			"type":"VEC3"
		},
		{
			"bufferView":109,
			"componentType":5126,
			"count":25,
			"type":"VEC4"
		},
		{
			"bufferView":110,
			"componentType":5126,
			"count":25,
			"type":"VEC3"
		},
		{
			"bufferView":111,
			"componentType":5126,
			"count":121,
			"type":"VEC4"
		},
		{
			"bufferView":112,
			"componentType":5126,
			"count":121,
			"type":"VEC3"
		},
		{
			"bufferView":113,
			"componentType":5126,
			"count":121,
			"type":"VEC3"
		},
		{
			"bufferView":114,
			"componentType":5126,
			"count":121,
			"type":"VEC4"
		},
		{
			"bufferView":115,
			"componentType":5126,
			"count":121,
			"type":"VEC3"
		},
		{
			"bufferView":116,
			"componentType":5126,
			"count":121,
			"type":"VEC3"
		},
		{
			"bufferView":117,
			"componentType":5126,
			"count":121,
			"type":"VEC4"
		},
		{
			"bufferView":118,
			"componentType":5126,
			"count":121,
			"type":"VEC3"
		},
		{
			"bufferView":119,
			"componentType":5126,
			"count":121,
			"type":"VEC4"
		},
		{
			"bufferView":120,
			"componentType":5126,
			"count":121,
			"type":"VEC3"
		},
		{
			"bufferView":121,
			"componentType":5126,
			"count":121,
			"type":"VEC3"
		},
		{
			"bufferView":122,
			"componentType":5126,
			"count":121,
			"type":"VEC4"
		},
		{
			"bufferView":123,
			"componentType":5126,
			"count":121,
			"type":"VEC3"
		},
		{
			"bufferView":124,
			"componentType":5126,
			"count":121,
			"type":"VEC3"
		},
		{
			"bufferView":125,
			"componentType":5126,
			"count":121,
			"type":"VEC4"
		},
		{
			"bufferView":126,
			"componentType":5126,
			"count":121,
			"type":"VEC3"
		},
		{
			"bufferView":127,
			"componentType":5126,
			"count":25,
			"type":"VEC4"
		},
		{
			"bufferView":128,
			"componentType":5126,
			"count":25,
			"type":"VEC3"
		},
		{
			"bufferView":129,
			"componentType":5126,
			"count":25,
			"type":"VEC3"
		},
		{
			"bufferView":130,
			"componentType":5126,
			"count":25,
			"type":"VEC4"
		},
		{
			"bufferView":131,
			"componentType":5126,
			"count":25,
			"type":"VEC3"
		},
		{
			"bufferView":132,
			"componentType":5126,
			"count":25,
			"type":"VEC3"
		},
		{
			"bufferView":133,
			"componentType":5126,
			"count":25,
			"type":"VEC4"
		},
		{
			"bufferView":134,
			"componentType":5126,
			"count":25,
			"type":"VEC3"
		}
	],
	"bufferViews":[
		{
			"buffer":0,
			"byteLength":34512,
			"byteOffset":0,
			"target":34962
		},
		{
			"buffer":0,
			"byteLength":34512,
			"byteOffset":34512,
			"target":34962
		},
		{
			"buffer":0,
			"byteLength":23008,
			"byteOffset":69024,
			"target":34962
		},
		{
			"buffer":0,
			"byteLength":11504,
			"byteOffset":92032,
			"target":34962
		},
		{
			"buffer":0,
			"byteLength":46016,
			"byteOffset":103536,
			"target":34962
		},
		{
			"buffer":0,
			"byteLength":13194,
			"byteOffset":149552,
			"target":34963
		},
		{
			"buffer":0,
			"byteLength":960,
			"byteOffset":162748
		},
		{
			"buffer":0,
			"byteLength":11520,
			"byteOffset":163708,
			"target":34962
		},
		{
			"buffer":0,
			"byteLength":11520,
			"byteOffset":175228,
			"target":34962
		},
		{
			"buffer":0,
			"byteLength":7680,
			"byteOffset":186748,
			"target":34962
		},
		{
			"buffer":0,
			"byteLength":3840,
			"byteOffset":194428,
			"target":34962
		},
		{
			"buffer":0,
			"byteLength":15360,
			"byteOffset":198268,
			"target":34962
		},
		{
			"buffer":0,
			"byteLength":4590,
			"byteOffset":213628,
			"target":34963
		},
		{
			"buffer":0,
			"byteLength":15144,
			"byteOffset":218220,
			"target":34962
		},
		{
			"buffer":0,
			"byteLength":15144,
			"byteOffset":233364,
			"target":34962
		},
		{
			"buffer":0,
			"byteLength":10096,
			"byteOffset":248508,
			"target":34962
		},
		{
			"buffer":0,
			"byteLength":5048,
			"byteOffset":258604,
			"target":34962
		},
		{
			"buffer":0,
			"byteLength":20192,
			"byteOffset":263652,
			"target":34962
		},
		{
			"buffer":0,
			"byteLength":8832,
			"byteOffset":283844,
			"target":34963
		},
		{
			"buffer":0,
			"byteLength":484,
			"byteOffset":292676
		},
		{
			"buffer":0,
			"byteLength":1452,
			"byteOffset":293160
		},
		{
			"buffer":0,
			"byteLength":1936,
			"byteOffset":294612
		},
		{
			"buffer":0,
			"byteLength":1452,
			"byteOffset":296548
		},
		{
			"buffer":0,
			"byteLength":1452,
			"byteOffset":298000
		},
		{
			"buffer":0,
			"byteLength":1936,
			"byteOffset":299452
		},
		{
			"buffer":0,
			"byteLength":1452,
			"byteOffset":301388
		},
		{
			"buffer":0,
			"byteLength":1452,
			"byteOffset":302840
		},
		{
			"buffer":0,
			"byteLength":1936,
			"byteOffset":304292
		},
		{
			"buffer":0,
			"byteLength":1452,
			"byteOffset":306228
		},
		{
			"buffer":0,
			"byteLength":1452,
			"byteOffset":307680
		},
		{
			"buffer":0,
			"byteLength":1936,
			"byteOffset":309132
		},
		{
			"buffer":0,
			"byteLength":1452,
			"byteOffset":311068
		},
		{
			"buffer":0,
			"byteLength":1452,
			"byteOffset":312520
		},
		{
			"buffer":0,
			"byteLength":1936,
			"byteOffset":313972
		},
		{
			"buffer":0,
			"byteLength":1452,
			"byteOffset":315908
		},
		{
			"buffer":0,
			"byteLength":1452,
			"byteOffset":317360
		},
		{
			"buffer":0,
			"byteLength":1936,
			"byteOffset":318812
		},
		{
			"buffer":0,
			"byteLength":1452,
			"byteOffset":320748
		},
		{
			"buffer":0,
			"byteLength":1452,
			"byteOffset":322200
		},
		{
			"buffer":0,
			"byteLength":1936,
			"byteOffset":323652
		},
		{
			"buffer":0,
			"byteLength":1452,
			"byteOffset":325588
		},
		{
			"buffer":0,
			"byteLength":1452,
			"byteOffset":327040
		},
		{
			"buffer":0,
			"byteLength":1936,
			"byteOffset":328492
		},
		{
			"buffer":0,
			"byteLength":1452,
			"byteOffset":330428
		},
		{
			"buffer":0,
			"byteLength":1452,
			"byteOffset":331880
		},
		{
			"buffer":0,
			"byteLength":1936,
			"byteOffset":333332
		},
		{
			"buffer":0,
			"byteLength":1452,
			"byteOffset":335268
		},
		{
			"buffer":0,
			"byteLength":1452,
			"byteOffset":336720
		},
		{
			"buffer":0,
			"byteLength":1936,
			"byteOffset":338172
		},
		{
			"buffer":0,
			"byteLength":1452,
			"byteOffset":340108
		},
		{
			"buffer":0,
			"byteLength":1452,
			"byteOffset":341560
		},
		{
			"buffer":0,
			"byteLength":1936,
			"byteOffset":343012
		},
		{
			"buffer":0,
			"byteLength":1452,
			"byteOffset":344948
		},
		{
			"buffer":0,
			"byteLength":1452,
			"byteOffset":346400
		},
		{
			"buffer":0,
			"byteLength":1936,
			"byteOffset":347852
		},
		{
			"buffer":0,
			"byteLength":1452,
			"byteOffset":349788
		},
		{
			"buffer":0,
			"byteLength":1452,
			"byteOffset":351240
		},
		{
			"buffer":0,
			"byteLength":1936,
			"byteOffset":352692
		},
		{
			"buffer":0,
			"byteLength":1452,
			"byteOffset":354628
		},
		{
			"buffer":0,
			"byteLength":1452,
			"byteOffset":356080
		},
		{
			"buffer":0,
			"byteLength":1936,
			"byteOffset":357532
		},
		{
			"buffer":0,
			"byteLength":1452,
			"byteOffset":359468
		},
		{
			"buffer":0,
			"byteLength":1452,
			"byteOffset":360920
		},
		{
			"buffer":0,
			"byteLength":1936,
			"byteOffset":362372
		},
		{
			"buffer":0,
			"byteLength":1452,
			"byteOffset":364308
		},
		{
			"buffer":0,
			"byteLength":100,
			"byteOffset":365760
		},
		{
			"buffer":0,
			"byteLength":300,
			"byteOffset":365860
		},
		{
			"buffer":0,
			"byteLength":400,
			"byteOffset":366160
		},
		{
			"buffer":0,
			"byteLength":300,
			"byteOffset":366560
		},
		{
			"buffer":0,
			"byteLength":300,
			"byteOffset":366860
		},
		{
			"buffer":0,
			"byteLength":400,
			"byteOffset":367160
		},
		{
			"buffer":0,
			"byteLength":300,
			"byteOffset":367560
		},
		{
			"buffer":0,
			"byteLength":300,
			"byteOffset":367860
		},
		{
			"buffer":0,
			"byteLength":400,
			"byteOffset":368160
		},
		{
			"buffer":0,
			"byteLength":300,
			"byteOffset":368560
		},
		{
			"buffer":0,
			"byteLength":300,
			"byteOffset":368860
		},
		{
			"buffer":0,
			"byteLength":400,
			"byteOffset":369160
		},
		{
			"buffer":0,
			"byteLength":300,
			"byteOffset":369560
		},
		{
			"buffer":0,
			"byteLength":300,
			"byteOffset":369860
		},
		{
			"buffer":0,
			"byteLength":400,
			"byteOffset":370160
		},
		{
			"buffer":0,
			"byteLength":300,
			"byteOffset":370560
		},
		{
			"buffer":0,
			"byteLength":300,
			"byteOffset":370860
		},
		{
			"buffer":0,
			"byteLength":400,
			"byteOffset":371160
		},
		{
			"buffer":0,
			"byteLength":300,
			"byteOffset":371560
		},
		{
			"buffer":0,
			"byteLength":300,
			"byteOffset":371860
		},
		{
			"buffer":0,
			"byteLength":400,
			"byteOffset":372160
		},
		{
			"buffer":0,
			"byteLength":300,
			"byteOffset":372560
		},
		{
			"buffer":0,
			"byteLength":300,
			"byteOffset":372860
		},
		{
			"buffer":0,
			"byteLength":400,
			"byteOffset":373160
		},
		{
			"buffer":0,
			"byteLength":300,
			"byteOffset":373560
		},
		{
			"buffer":0,
			"byteLength":300,
			"byteOffset":373860
		},
		{
			"buffer":0,
			"byteLength":400,
			"byteOffset":374160
		},
		{
			"buffer":0,
			"byteLength":300,
			"byteOffset":374560
		},
		{
			"buffer":0,
			"byteLength":300,
			"byteOffset":374860
		},
		{
			"buffer":0,
			"byteLength":400,
			"byteOffset":375160
		},
		{
			"buffer":0,
			"byteLength":300,
			"byteOffset":375560
		},
		{
			"buffer":0,
			"byteLength":300,
			"byteOffset":375860
		},
		{
			"buffer":0,
			"byteLength":400,
			"byteOffset":376160
		},
		{
			"buffer":0,
			"byteLength":300,
			"byteOffset":376560
		},
		{
			"buffer":0,
			"byteLength":300,
			"byteOffset":376860
		},
		{
			"buffer":0,
			"byteLength":400,
			"byteOffset":377160
		},
		{
			"buffer":0,
			"byteLength":300,
			"byteOffset":377560
		},
		{
			"buffer":0,
			"byteLength":300,
			"byteOffset":377860
		},
		{
			"buffer":0,
			"byteLength":400,
			"byteOffset":378160
		},
		{
			"buffer":0,
			"byteLength":300,
			"byteOffset":378560
		},
		{
			"buffer":0,
			"byteLength":300,
			"byteOffset":378860
		},
		{
			"buffer":0,
			"byteLength":400,
			"byteOffset":379160
		},
		{
			"buffer":0,
			"byteLength":300,
			"byteOffset":379560
		},
		{
			"buffer":0,
			"byteLength":300,
			"byteOffset":379860
		},
		{
			"buffer":0,
			"byteLength":400,
			"byteOffset":380160
		},
		{
			"buffer":0,
			"byteLength":300,
			"byteOffset":380560
		},
		{
			"buffer":0,
			"byteLength":1936,
			"byteOffset":380860
		},
		{
			"buffer":0,
			"byteLength":1452,
			"byteOffset":382796
		},
		{
			"buffer":0,
			"byteLength":1452,
			"byteOffset":384248
		},
		{
			"buffer":0,
			"byteLength":1936,
			"byteOffset":385700
		},
		{
			"buffer":0,
			"byteLength":1452,
			"byteOffset":387636
		},
		{
			"buffer":0,
			"byteLength":1452,
			"byteOffset":389088
		},
		{
			"buffer":0,
			"byteLength":1936,
			"byteOffset":390540
		},
		{
			"buffer":0,
			"byteLength":1452,
			"byteOffset":392476
		},
		{
			"buffer":0,
			"byteLength":1936,
			"byteOffset":393928
		},
		{
			"buffer":0,
			"byteLength":1452,
			"byteOffset":395864
		},
		{
			"buffer":0,
			"byteLength":1452,
			"byteOffset":397316
		},
		{
			"buffer":0,
			"byteLength":1936,
			"byteOffset":398768
		},
		{
			"buffer":0,
			"byteLength":1452,
			"byteOffset":400704
		},
		{
			"buffer":0,
			"byteLength":1452,
			"byteOffset":402156
		},
		{
			"buffer":0,
			"byteLength":1936,
			"byteOffset":403608
		},
		{
			"buffer":0,
			"byteLength":1452,
			"byteOffset":405544
		},
		{
			"buffer":0,
			"byteLength":400,
			"byteOffset":406996
		},
		{
			"buffer":0,
			"byteLength":300,
			"byteOffset":407396
		},
		{
			"buffer":0,
			"byteLength":300,
			"byteOffset":407696
		},
		{
			"buffer":0,
			"byteLength":400,
			"byteOffset":407996
		},
		{
			"buffer":0,
			"byteLength":300,
			"byteOffset":408396
		},
		{
			"buffer":0,
			"byteLength":300,
			"byteOffset":408696
		},
		{
			"buffer":0,
			"byteLength":400,
			"byteOffset":408996
		},
		{
			"buffer":0,
			"byteLength":300,
			"byteOffset":409396
		}
	],
	"samplers":[
		{
			"magFilter":9729,
			"minFilter":9987
		}
	],
	"buffers":[
		{
			"byteLength":409696,
			"uri":"sk_player_character.bin"
		}
	]
}
