{
	"asset": {
		"generator": "Khronos glTF Blender I/O v5.2.39",
		"version": "2.0",
		"extras": {
			"import_rev": 6
		}
	},
	"scene": 0,
	"scenes": [
		{
			"name": "Scene",
			"nodes": [
				5,
				11,
				108,
				109,
				161
			]
		}
	],
	"nodes": [
		{
			"mesh": 0,
			"name": "PathCubes_Baked"
		},
		{
			"name": "Bezier_Mid",
			"scale": [
				0.9999999403953552,
				0.9999999403953552,
				0.9999999403953552
			]
		},
		{
			"children": [
				1
			],
			"name": "Orbit_Follow",
			"rotation": [
				0,
				0,
				-0.7071067690849304,
				0.7071067690849304
			],
			"scale": [
				0.9999999403953552,
				0.9999999403953552,
				0.9999999403953552
			],
			"translation": [
				0,
				0,
				0.7836999297142029
			]
		},
		{
			"children": [
				2
			],
			"name": "Orbit_Ctrl",
			"rotation": [
				-0.7071067690849304,
				0,
				0,
				0.7071067690849304
			],
			"scale": [
				0.9999999403953552,
				0.9999999403953552,
				0.9999999403953552
			]
		},
		{
			"children": [
				3
			],
			"name": "Spline_Semicircle_Rig"
		},
		{
			"children": [
				0,
				4
			],
			"name": "body",
			"rotation": [
				0,
				0.7071068286895752,
				0,
				0.7071068286895752
			],
			"scale": [
				2.0376503467559814,
				2.0376503467559814,
				2.0376503467559814
			],
			"translation": [
				0,
				0,
				-0.5082186460494995
			]
		},
		{
			"mesh": 1,
			"name": "eye_0",
			"rotation": [
				-0.02277650684118271,
				0.03596235811710358,
				0.000512215425260365,
				0.9990934133529663
			],
			"scale": [
				0.15127037465572357,
				0.15127038955688477,
				0.15127034485340118
			],
			"translation": [
				0.2657950222492218,
				0.29544854164123535,
				-0.1596529483795166
			]
		},
		{
			"mesh": 1,
			"name": "eye_1",
			"rotation": [
				0.07852137833833694,
				0.05225735902786255,
				-0.003851595800369978,
				0.9955344200134277
			],
			"scale": [
				0.1515306979417801,
				0.15153063833713531,
				0.1515306681394577
			],
			"translation": [
				-0.2903151512145996,
				0.2896454334259033,
				-0.15991643071174622
			]
		},
		{
			"mesh": 1,
			"name": "eye_2",
			"rotation": [
				0.00020870495063718408,
				-0.018486667424440384,
				-0.014782164245843887,
				0.9997197985649109
			],
			"scale": [
				0.17361117899417877,
				0.17361117899417877,
				0.17361117899417877
			],
			"translation": [
				-0.0031601754017174244,
				0.423991322517395,
				-0.12237286567687988
			]
		},
		{
			"mesh": 1,
			"name": "eye_3",
			"rotation": [
				0.04870886728167534,
				0.0656384825706482,
				-0.038648247718811035,
				0.9959043860435486
			],
			"scale": [
				0.10859154164791107,
				0.10859154164791107,
				0.10859153419733047
			],
			"translation": [
				-0.4849318861961365,
				0.16703766584396362,
				-0.12237286567687988
			]
		},
		{
			"mesh": 1,
			"name": "eye_4",
			"rotation": [
				-0.0713205561041832,
				-0.08157283067703247,
				0.018927115947008133,
				0.9939321279525757
			],
			"scale": [
				0.12681233882904053,
				0.12681232392787933,
				0.12681229412555695
			],
			"translation": [
				0.4423436224460602,
				0.1747751235961914,
				-0.1585090160369873
			]
		},
		{
			"children": [
				6,
				7,
				8,
				9,
				10
			],
			"name": "eyes",
			"scale": [
				1.0055351257324219,
				1.0055351257324219,
				1.0055351257324219
			],
			"translation": [
				0,
				0.5343292951583862,
				0.6382267475128174
			]
		},
		{
			"mesh": 2,
			"name": "fang_0_0",
			"scale": [
				0.12999999523162842,
				0.12999999523162842,
				0.12999999523162842
			]
		},
		{
			"mesh": 2,
			"name": "fang_0_1",
			"scale": [
				0.11310000717639923,
				0.11310000717639923,
				0.11309999972581863
			],
			"translation": [
				0,
				0.10376845300197601,
				-0.10000000149011612
			]
		},
		{
			"mesh": 2,
			"name": "fang_0_2",
			"scale": [
				0.09619999676942825,
				0.09619999676942825,
				0.09619999676942825
			],
			"translation": [
				0,
				0.17464067041873932,
				-0.20000000298023224
			]
		},
		{
			"mesh": 2,
			"name": "fang_0_3",
			"scale": [
				0.07930000871419907,
				0.07930000871419907,
				0.07930000126361847
			],
			"translation": [
				0,
				0.1925394982099533,
				-0.2999999523162842
			]
		},
		{
			"mesh": 2,
			"name": "fang_0_4",
			"scale": [
				0.06240000203251839,
				0.06240000203251839,
				0.06239999830722809
			],
			"translation": [
				0,
				0.150033101439476,
				-0.3999999761581421
			]
		},
		{
			"mesh": 2,
			"name": "fang_0_5",
			"scale": [
				0.045500002801418304,
				0.045500002801418304,
				0.045499999076128006
			],
			"translation": [
				0,
				0.055272795259952545,
				-0.5
			]
		},
		{
			"mesh": 2,
			"name": "fang_0_6",
			"scale": [
				0.028599999845027924,
				0.028599999845027924,
				0.028599999845027924
			],
			"translation": [
				0,
				-0.06999998539686203,
				-0.6000000238418579
			]
		},
		{
			"children": [
				12,
				13,
				14,
				15,
				16,
				17,
				18
			],
			"name": "fang_0",
			"rotation": [
				-0.6864275932312012,
				-0.7271981835365295,
				0,
				3.178683982696384e-08
			],
			"translation": [
				0.6544308662414551,
				0.037780486047267914,
				0.5
			]
		},
		{
			"mesh": 2,
			"name": "fang_1_0",
			"scale": [
				0.12999998033046722,
				0.12999999523162842,
				0.12999999523162842
			]
		},
		{
			"mesh": 2,
			"name": "fang_1_1",
			"scale": [
				0.11309999972581863,
				0.11309999972581863,
				0.11309999227523804
			],
			"translation": [
				0,
				0.10376853495836258,
				-0.09999995678663254
			]
		},
		{
			"mesh": 2,
			"name": "fang_1_2",
			"scale": [
				0.09619999676942825,
				0.09619999676942825,
				0.09619999676942825
			],
			"translation": [
				0,
				0.17464077472686768,
				-0.19999995827674866
			]
		},
		{
			"mesh": 2,
			"name": "fang_1_3",
			"scale": [
				0.07929999381303787,
				0.07929999381303787,
				0.07930000126361847
			],
			"translation": [
				0,
				0.19253964722156525,
				-0.30000001192092896
			]
		},
		{
			"mesh": 2,
			"name": "fang_1_4",
			"scale": [
				0.06240000203251839,
				0.06239999458193779,
				0.06239999458193779
			],
			"translation": [
				0,
				0.15003317594528198,
				-0.3999999761581421
			]
		},
		{
			"mesh": 2,
			"name": "fang_1_5",
			"scale": [
				0.045499999076128006,
				0.04549999535083771,
				0.04549999535083771
			],
			"translation": [
				0,
				0.05527283251285553,
				-0.4999999403953552
			]
		},
		{
			"mesh": 2,
			"name": "fang_1_6",
			"scale": [
				0.028599999845027924,
				0.028599997982382774,
				0.028599999845027924
			],
			"translation": [
				0,
				-0.06999993324279785,
				-0.6000000238418579
			]
		},
		{
			"children": [
				20,
				21,
				22,
				23,
				24,
				25,
				26
			],
			"name": "fang_1",
			"rotation": [
				-0.4864327609539032,
				-0.8733646869659424,
				0.024251265451312065,
				0.005408399272710085
			],
			"translation": [
				0.5239744782447815,
				0.32482844591140747,
				0.5
			]
		},
		{
			"mesh": 2,
			"name": "fang_2_0",
			"scale": [
				0.12999998033046722,
				0.12999999523162842,
				0.12999998033046722
			]
		},
		{
			"mesh": 2,
			"name": "fang_2_1",
			"scale": [
				0.11309999972581863,
				0.11309999972581863,
				0.11309999227523804
			],
			"translation": [
				0,
				0.103768490254879,
				-0.09999997913837433
			]
		},
		{
			"mesh": 2,
			"name": "fang_2_2",
			"scale": [
				0.09619999676942825,
				0.09619999676942825,
				0.09619998931884766
			],
			"translation": [
				0,
				0.1746407151222229,
				-0.20000001788139343
			]
		},
		{
			"mesh": 2,
			"name": "fang_2_3",
			"scale": [
				0.07930000126361847,
				0.07930000126361847,
				0.07929999381303787
			],
			"translation": [
				0,
				0.19253963232040405,
				-0.30000004172325134
			]
		},
		{
			"mesh": 2,
			"name": "fang_2_4",
			"scale": [
				0.06239999830722809,
				0.06239999830722809,
				0.06239999458193779
			],
			"translation": [
				0,
				0.1500331461429596,
				-0.4000000059604645
			]
		},
		{
			"mesh": 2,
			"name": "fang_2_5",
			"scale": [
				0.045499999076128006,
				0.045499999076128006,
				0.045499999076128006
			],
			"translation": [
				0,
				0.055272772908210754,
				-0.5
			]
		},
		{
			"mesh": 2,
			"name": "fang_2_6",
			"scale": [
				0.028599999845027924,
				0.028599999845027924,
				0.028599997982382774
			],
			"translation": [
				0,
				-0.06999996304512024,
				-0.6000000238418579
			]
		},
		{
			"children": [
				28,
				29,
				30,
				31,
				32,
				33,
				34
			],
			"name": "fang_2",
			"rotation": [
				0.22859665751457214,
				0.9714595675468445,
				-0.05996224284172058,
				0.020357316359877586
			],
			"translation": [
				0.253119558095932,
				0.5141209363937378,
				0.5
			]
		},
		{
			"mesh": 2,
			"name": "fang_3_0",
			"scale": [
				0.12999998033046722,
				0.12999998033046722,
				0.12999998033046722
			]
		},
		{
			"mesh": 2,
			"name": "fang_3_1",
			"scale": [
				0.11309999972581863,
				0.11309998482465744,
				0.11309998482465744
			],
			"translation": [
				0,
				0.10376846790313721,
				-0.09999996423721313
			]
		},
		{
			"mesh": 2,
			"name": "fang_3_2",
			"scale": [
				0.09619998931884766,
				0.09619998931884766,
				0.09619998931884766
			],
			"translation": [
				0,
				0.1746407002210617,
				-0.20000000298023224
			]
		},
		{
			"mesh": 2,
			"name": "fang_3_3",
			"scale": [
				0.07930000126361847,
				0.07929998636245728,
				0.07929999381303787
			],
			"translation": [
				0,
				0.19253957271575928,
				-0.30000001192092896
			]
		},
		{
			"mesh": 2,
			"name": "fang_3_4",
			"scale": [
				0.06239999458193779,
				0.06239999085664749,
				0.06239999458193779
			],
			"translation": [
				0,
				0.1500331163406372,
				-0.3999999761581421
			]
		},
		{
			"mesh": 2,
			"name": "fang_3_5",
			"scale": [
				0.045499999076128006,
				0.04549999162554741,
				0.04549999535083771
			],
			"translation": [
				0,
				0.05527280643582344,
				-0.4999999403953552
			]
		},
		{
			"mesh": 2,
			"name": "fang_3_6",
			"scale": [
				0.028599997982382774,
				0.028599996119737625,
				0.028599996119737625
			],
			"translation": [
				0,
				-0.06999999284744263,
				-0.5999999642372131
			]
		},
		{
			"children": [
				36,
				37,
				38,
				39,
				40,
				41,
				42
			],
			"name": "fang_3",
			"rotation": [
				0.07695762068033218,
				-0.9946622848510742,
				0.06853580474853516,
				0.005231525283306837
			],
			"translation": [
				-0.08555853366851807,
				0.5549371242523193,
				0.5
			]
		},
		{
			"mesh": 2,
			"name": "fang_4_0",
			"scale": [
				0.12999999523162842,
				0.12999999523162842,
				0.12999999523162842
			]
		},
		{
			"mesh": 2,
			"name": "fang_4_1",
			"scale": [
				0.11309999227523804,
				0.11309999227523804,
				0.11309999972581863
			],
			"translation": [
				0,
				0.10376851260662079,
				-0.1000000387430191
			]
		},
		{
			"mesh": 2,
			"name": "fang_4_2",
			"scale": [
				0.09619998931884766,
				0.09619998931884766,
				0.09619999676942825
			],
			"translation": [
				0,
				0.1746407300233841,
				-0.19999997317790985
			]
		},
		{
			"mesh": 2,
			"name": "fang_4_3",
			"scale": [
				0.07930000126361847,
				0.07929999381303787,
				0.07930000871419907
			],
			"translation": [
				0,
				0.19253957271575928,
				-0.30000007152557373
			]
		},
		{
			"mesh": 2,
			"name": "fang_4_4",
			"scale": [
				0.06239999458193779,
				0.06239999458193779,
				0.06239999830722809
			],
			"translation": [
				0,
				0.15003307163715363,
				-0.40000003576278687
			]
		},
		{
			"mesh": 2,
			"name": "fang_4_5",
			"scale": [
				0.04549999535083771,
				0.04549999535083771,
				0.045499999076128006
			],
			"translation": [
				0,
				0.05527281016111374,
				-0.5
			]
		},
		{
			"mesh": 2,
			"name": "fang_4_6",
			"scale": [
				0.028599997982382774,
				0.028599997982382774,
				0.028599999845027924
			],
			"translation": [
				0,
				-0.06999998539686203,
				-0.6000000834465027
			]
		},
		{
			"children": [
				44,
				45,
				46,
				47,
				48,
				49,
				50
			],
			"name": "fang_4",
			"rotation": [
				0.36401480436325073,
				-0.9309396743774414,
				0.017230991274118423,
				0.023401958867907524
			],
			"translation": [
				-0.4013112783432007,
				0.43634042143821716,
				0.5
			]
		},
		{
			"mesh": 2,
			"name": "fang_5_0",
			"scale": [
				0.12999999523162842,
				0.12999999523162842,
				0.12999999523162842
			]
		},
		{
			"mesh": 2,
			"name": "fang_5_1",
			"scale": [
				0.11309999972581863,
				0.11309999972581863,
				0.11309999972581863
			],
			"translation": [
				0,
				0.10376845300197601,
				-0.09999999403953552
			]
		},
		{
			"mesh": 2,
			"name": "fang_5_2",
			"scale": [
				0.09619999676942825,
				0.09620000422000885,
				0.09619999676942825
			],
			"translation": [
				0,
				0.1746407151222229,
				-0.19999995827674866
			]
		},
		{
			"mesh": 2,
			"name": "fang_5_3",
			"scale": [
				0.07930000126361847,
				0.07930000871419907,
				0.07930000126361847
			],
			"translation": [
				0,
				0.19253955781459808,
				-0.2999999523162842
			]
		},
		{
			"mesh": 2,
			"name": "fang_5_4",
			"scale": [
				0.06239999830722809,
				0.06239999830722809,
				0.06239999830722809
			],
			"translation": [
				0,
				0.15003307163715363,
				-0.4000000059604645
			]
		},
		{
			"mesh": 2,
			"name": "fang_5_5",
			"scale": [
				0.045499999076128006,
				0.045500002801418304,
				0.045499999076128006
			],
			"translation": [
				0,
				0.055272772908210754,
				-0.4999999701976776
			]
		},
		{
			"mesh": 2,
			"name": "fang_5_6",
			"scale": [
				0.028599999845027924,
				0.028600001707673073,
				0.028599999845027924
			],
			"translation": [
				0,
				-0.06999997049570084,
				-0.5999999642372131
			]
		},
		{
			"children": [
				52,
				53,
				54,
				55,
				56,
				57,
				58
			],
			"name": "fang_5",
			"rotation": [
				0.5925486087799072,
				-0.8054348826408386,
				-0.011408057995140553,
				0.00553944380953908
			],
			"translation": [
				-0.6095330119132996,
				0.19010868668556213,
				0.5
			]
		},
		{
			"mesh": 2,
			"name": "fang_6_0",
			"scale": [
				0.12999999523162842,
				0.12999998033046722,
				0.12999999523162842
			]
		},
		{
			"mesh": 2,
			"name": "fang_6_1",
			"scale": [
				0.11309999972581863,
				0.11309999972581863,
				0.11309999227523804
			],
			"translation": [
				0,
				0.10376843810081482,
				-0.09999997913837433
			]
		},
		{
			"mesh": 2,
			"name": "fang_6_2",
			"scale": [
				0.09619999676942825,
				0.09619998931884766,
				0.09619999676942825
			],
			"translation": [
				0,
				0.17464059591293335,
				-0.20000003278255463
			]
		},
		{
			"mesh": 2,
			"name": "fang_6_3",
			"scale": [
				0.07929999381303787,
				0.07930000126361847,
				0.07930000126361847
			],
			"translation": [
				0,
				0.19253943860530853,
				-0.30000004172325134
			]
		},
		{
			"mesh": 2,
			"name": "fang_6_4",
			"scale": [
				0.06239999458193779,
				0.06239999458193779,
				0.06239999830722809
			],
			"translation": [
				0,
				0.15003293752670288,
				-0.3999999761581421
			]
		},
		{
			"mesh": 2,
			"name": "fang_6_5",
			"scale": [
				0.045499999076128006,
				0.045499999076128006,
				0.04549999535083771
			],
			"translation": [
				0,
				0.05527264624834061,
				-0.4999999701976776
			]
		},
		{
			"mesh": 2,
			"name": "fang_6_6",
			"scale": [
				0.028599997982382774,
				0.028599999845027924,
				0.028599999845027924
			],
			"translation": [
				0,
				-0.07000009715557098,
				-0.5999999642372131
			]
		},
		{
			"children": [
				60,
				61,
				62,
				63,
				64,
				65,
				66
			],
			"name": "fang_6",
			"rotation": [
				0.7666478157043457,
				-0.6415510773658752,
				-0.010674187913537025,
				0.023441025987267494
			],
			"translation": [
				-0.6544308662414551,
				-0.11778048425912857,
				0.5
			]
		},
		{
			"mesh": 2,
			"name": "fang_7_0",
			"scale": [
				0.12999999523162842,
				0.12999999523162842,
				0.12999999523162842
			]
		},
		{
			"mesh": 2,
			"name": "fang_7_1",
			"scale": [
				0.11309999972581863,
				0.11309999972581863,
				0.11309999972581863
			],
			"translation": [
				0,
				0.103768490254879,
				-0.10000000894069672
			]
		},
		{
			"mesh": 2,
			"name": "fang_7_2",
			"scale": [
				0.09619999676942825,
				0.09619999676942825,
				0.09619999676942825
			],
			"translation": [
				0,
				0.1746407449245453,
				-0.20000004768371582
			]
		},
		{
			"mesh": 2,
			"name": "fang_7_3",
			"scale": [
				0.07930000126361847,
				0.07930000126361847,
				0.07930000126361847
			],
			"translation": [
				0,
				0.19253957271575928,
				-0.30000007152557373
			]
		},
		{
			"mesh": 2,
			"name": "fang_7_4",
			"scale": [
				0.06240000203251839,
				0.06239999458193779,
				0.06240000203251839
			],
			"translation": [
				0,
				0.15003308653831482,
				-0.3999999761581421
			]
		},
		{
			"mesh": 2,
			"name": "fang_7_5",
			"scale": [
				0.045499999076128006,
				0.045499999076128006,
				0.045499999076128006
			],
			"translation": [
				0,
				0.05527283251285553,
				-0.5
			]
		},
		{
			"mesh": 2,
			"name": "fang_7_6",
			"scale": [
				0.028599999845027924,
				0.028599999845027924,
				0.028599999845027924
			],
			"translation": [
				0,
				-0.06999999284744263,
				-0.6000000834465027
			]
		},
		{
			"children": [
				68,
				69,
				70,
				71,
				72,
				73,
				74
			],
			"name": "fang_7",
			"rotation": [
				0.8949825167655945,
				-0.43927130103111267,
				-0.03687553107738495,
				0.06846306473016739
			],
			"translation": [
				-0.5239744782447815,
				-0.4048284590244293,
				0.5
			]
		},
		{
			"mesh": 2,
			"name": "fang_8_0",
			"scale": [
				0.12999999523162842,
				0.12999999523162842,
				0.12999999523162842
			]
		},
		{
			"mesh": 2,
			"name": "fang_8_1",
			"scale": [
				0.11310000717639923,
				0.11310000717639923,
				0.11310001462697983
			],
			"translation": [
				0,
				0.10376846790313721,
				-0.10000000894069672
			]
		},
		{
			"mesh": 2,
			"name": "fang_8_2",
			"scale": [
				0.09620000422000885,
				0.09620000422000885,
				0.09620000422000885
			],
			"translation": [
				0,
				0.1746407449245453,
				-0.19999998807907104
			]
		},
		{
			"mesh": 2,
			"name": "fang_8_3",
			"scale": [
				0.07930000126361847,
				0.07930000871419907,
				0.07930000871419907
			],
			"translation": [
				0,
				0.19253961741924286,
				-0.29999998211860657
			]
		},
		{
			"mesh": 2,
			"name": "fang_8_4",
			"scale": [
				0.06239999830722809,
				0.06240000203251839,
				0.06240000203251839
			],
			"translation": [
				0,
				0.1500331163406372,
				-0.40000003576278687
			]
		},
		{
			"mesh": 2,
			"name": "fang_8_5",
			"scale": [
				0.045500002801418304,
				0.045499999076128006,
				0.045500002801418304
			],
			"translation": [
				0,
				0.05527280271053314,
				-0.5000000596046448
			]
		},
		{
			"mesh": 2,
			"name": "fang_8_6",
			"scale": [
				0.028599999845027924,
				0.028600001707673073,
				0.028600001707673073
			],
			"translation": [
				0,
				-0.07000000029802322,
				-0.6000000238418579
			]
		},
		{
			"children": [
				76,
				77,
				78,
				79,
				80,
				81,
				82
			],
			"name": "fang_8",
			"rotation": [
				0.977577805519104,
				-0.1978292614221573,
				-0.04771358519792557,
				0.05411750078201294
			],
			"translation": [
				-0.253119558095932,
				-0.5941209197044373,
				0.5
			]
		},
		{
			"mesh": 2,
			"name": "fang_9_0",
			"scale": [
				0.12999999523162842,
				0.12999999523162842,
				0.12999999523162842
			]
		},
		{
			"mesh": 2,
			"name": "fang_9_1",
			"scale": [
				0.11309999972581863,
				0.11309999972581863,
				0.11310000717639923
			],
			"translation": [
				0,
				0.10376838594675064,
				-0.09999998658895493
			]
		},
		{
			"mesh": 2,
			"name": "fang_9_2",
			"scale": [
				0.09619999676942825,
				0.09619998931884766,
				0.09619999676942825
			],
			"translation": [
				0,
				0.17464055120944977,
				-0.19999995827674866
			]
		},
		{
			"mesh": 2,
			"name": "fang_9_3",
			"scale": [
				0.07930000126361847,
				0.07930000126361847,
				0.07930000871419907
			],
			"translation": [
				0,
				0.19253943860530853,
				-0.30000004172325134
			]
		},
		{
			"mesh": 2,
			"name": "fang_9_4",
			"scale": [
				0.06240000203251839,
				0.06239999458193779,
				0.06240000203251839
			],
			"translation": [
				0,
				0.15003301203250885,
				-0.40000003576278687
			]
		},
		{
			"mesh": 2,
			"name": "fang_9_5",
			"scale": [
				0.045499999076128006,
				0.04549999535083771,
				0.045499999076128006
			],
			"translation": [
				0,
				0.05527267977595329,
				-0.5
			]
		},
		{
			"mesh": 2,
			"name": "fang_9_6",
			"scale": [
				0.028599999845027924,
				0.028599997982382774,
				0.028599999845027924
			],
			"translation": [
				0,
				-0.07000009715557098,
				-0.6000000238418579
			]
		},
		{
			"children": [
				84,
				85,
				86,
				87,
				88,
				89,
				90
			],
			"name": "fang_9",
			"rotation": [
				-0.9977509379386902,
				-0.06692797690629959,
				-0.0015988713130354881,
				0.0033471952192485332
			],
			"translation": [
				0.08555853366851807,
				-0.6349371075630188,
				0.5
			]
		},
		{
			"mesh": 2,
			"name": "fang_10_0",
			"scale": [
				0.12999999523162842,
				0.12999999523162842,
				0.12999999523162842
			]
		},
		{
			"mesh": 2,
			"name": "fang_10_1",
			"scale": [
				0.11309999227523804,
				0.11309999972581863,
				0.11309999972581863
			],
			"translation": [
				0,
				0.10376853495836258,
				-0.10000000894069672
			]
		},
		{
			"mesh": 2,
			"name": "fang_10_2",
			"scale": [
				0.09619998931884766,
				0.09619999676942825,
				0.09619999676942825
			],
			"translation": [
				0,
				0.1746407151222229,
				-0.20000004768371582
			]
		},
		{
			"mesh": 2,
			"name": "fang_10_3",
			"scale": [
				0.07930000126361847,
				0.07930000126361847,
				0.07930000126361847
			],
			"translation": [
				0,
				0.19253960251808167,
				-0.30000004172325134
			]
		},
		{
			"mesh": 2,
			"name": "fang_10_4",
			"scale": [
				0.06239999830722809,
				0.06239999830722809,
				0.06239999830722809
			],
			"translation": [
				0,
				0.15003307163715363,
				-0.40000003576278687
			]
		},
		{
			"mesh": 2,
			"name": "fang_10_5",
			"scale": [
				0.045499999076128006,
				0.045499999076128006,
				0.045500002801418304
			],
			"translation": [
				0,
				0.05527280271053314,
				-0.4999999701976776
			]
		},
		{
			"mesh": 2,
			"name": "fang_10_6",
			"scale": [
				0.028599999845027924,
				0.028599999845027924,
				0.028599999845027924
			],
			"translation": [
				0,
				-0.06999994814395905,
				-0.6000000834465027
			]
		},
		{
			"children": [
				92,
				93,
				94,
				95,
				96,
				97,
				98
			],
			"name": "fang_10",
			"rotation": [
				-0.9445666670799255,
				-0.3256237804889679,
				-0.020051022991538048,
				0.03689132630825043
			],
			"translation": [
				0.4013112783432007,
				-0.516340434551239,
				0.5
			]
		},
		{
			"mesh": 2,
			"name": "fang_11_0",
			"scale": [
				0.1300000101327896,
				0.12999999523162842,
				0.12999999523162842
			]
		},
		{
			"mesh": 2,
			"name": "fang_11_1",
			"scale": [
				0.11310000717639923,
				0.11310000717639923,
				0.11310000717639923
			],
			"translation": [
				0,
				0.10376852005720139,
				-0.10000002384185791
			]
		},
		{
			"mesh": 2,
			"name": "fang_11_2",
			"scale": [
				0.09620000422000885,
				0.09619999676942825,
				0.09620000422000885
			],
			"translation": [
				0,
				0.1746407151222229,
				-0.20000003278255463
			]
		},
		{
			"mesh": 2,
			"name": "fang_11_3",
			"scale": [
				0.07930000871419907,
				0.07930000126361847,
				0.07930000126361847
			],
			"translation": [
				0,
				0.1925395131111145,
				-0.3000001013278961
			]
		},
		{
			"mesh": 2,
			"name": "fang_11_4",
			"scale": [
				0.06240000203251839,
				0.06240000203251839,
				0.06239999830722809
			],
			"translation": [
				0,
				0.15003305673599243,
				-0.40000009536743164
			]
		},
		{
			"mesh": 2,
			"name": "fang_11_5",
			"scale": [
				0.045499999076128006,
				0.045500002801418304,
				0.045499999076128006
			],
			"translation": [
				0,
				0.05527280271053314,
				-0.5
			]
		},
		{
			"mesh": 2,
			"name": "fang_11_6",
			"scale": [
				0.028600001707673073,
				0.028600001707673073,
				0.028600001707673073
			],
			"translation": [
				0,
				-0.07000001519918442,
				-0.6000000238418579
			]
		},
		{
			"children": [
				100,
				101,
				102,
				103,
				104,
				105,
				106
			],
			"name": "fang_11",
			"rotation": [
				-0.835899293422699,
				-0.5439171195030212,
				0.03979168087244034,
				0.061994053423404694
			],
			"translation": [
				0.6095330119132996,
				-0.270108699798584,
				0.5
			]
		},
		{
			"children": [
				19,
				27,
				35,
				43,
				51,
				59,
				67,
				75,
				83,
				91,
				99,
				107
			],
			"extras": {
				"fang_y_open": 0.11999999731779099,
				"fang_y_closed": 1.25,
				"fang_scale_open": 1.0,
				"fang_scale_closed": 0.5800000429153442
			},
			"name": "fangs",
			"translation": [
				0,
				0,
				-0.11999999731779099
			]
		},
		{
			"mesh": 3,
			"name": "Sphere",
			"rotation": [
				-0.7071068286895752,
				0,
				0,
				0.7071068286895752
			],
			"scale": [
				1.7311021089553833,
				1.4336693286895752,
				1.7962219715118408
			],
			"translation": [
				0,
				-0.005343292374163866,
				-1.2343004941940308
			]
		},
		{
			"mesh": 4,
			"name": "tooth_0_0",
			"rotation": [
				0,
				-1,
				0,
				4.371138828673793e-08
			],
			"scale": [
				0.07611998170614243,
				0.037612222135066986,
				0.03761221840977669
			],
			"translation": [
				0.5,
				0,
				0
			]
		},
		{
			"mesh": 4,
			"name": "tooth_0_1",
			"rotation": [
				0,
				-0.9848077893257141,
				0,
				0.1736481636762619
			],
			"scale": [
				0.0906013622879982,
				0.04476773738861084,
				0.04476773366332054
			],
			"translation": [
				0.46984630823135376,
				0.1710100919008255,
				0
			]
		},
		{
			"mesh": 4,
			"name": "tooth_0_2",
			"rotation": [
				0,
				-0.9396926760673523,
				0,
				0.3420201241970062
			],
			"scale": [
				0.10160427540540695,
				0.05020447447896004,
				0.05020447075366974
			],
			"translation": [
				0.3830222189426422,
				0.32139381766319275,
				0
			]
		},
		{
			"mesh": 4,
			"name": "tooth_0_3",
			"rotation": [
				0,
				-0.8660253882408142,
				0,
				0.5
			],
			"scale": [
				0.1022958979010582,
				0.05054621025919914,
				0.050546206533908844
			],
			"translation": [
				0.25,
				0.4330127239227295,
				0
			]
		},
		{
			"mesh": 4,
			"name": "tooth_0_4",
			"rotation": [
				0,
				-0.7660444378852844,
				0,
				0.6427876353263855
			],
			"scale": [
				0.09224668145179749,
				0.04558072239160538,
				0.04558072239160538
			],
			"translation": [
				0.08682409673929214,
				0.49240389466285706,
				0
			]
		},
		{
			"mesh": 4,
			"name": "tooth_0_5",
			"rotation": [
				0,
				-0.6427876353263855,
				0,
				0.766044557094574
			],
			"scale": [
				0.0776972845196724,
				0.0383915975689888,
				0.0383916012942791
			],
			"translation": [
				-0.08682409673929214,
				0.49240389466285706,
				0
			]
		},
		{
			"mesh": 4,
			"name": "tooth_0_6",
			"rotation": [
				0,
				-0.5,
				0,
				0.8660253882408142
			],
			"scale": [
				0.06768286973237991,
				0.03344330936670303,
				0.033443305641412735
			],
			"translation": [
				-0.2500000298023224,
				0.4330126941204071,
				0
			]
		},
		{
			"mesh": 4,
			"name": "tooth_0_7",
			"rotation": [
				0,
				-0.3420202434062958,
				0,
				0.9396926164627075
			],
			"scale": [
				0.06842245906591415,
				0.03380874544382095,
				0.03380874544382095
			],
			"translation": [
				-0.3830221891403198,
				0.32139384746551514,
				0
			]
		},
		{
			"mesh": 4,
			"name": "tooth_0_8",
			"rotation": [
				0,
				-0.17364828288555145,
				0,
				0.9848077297210693
			],
			"scale": [
				0.07945675402879715,
				0.03926098346710205,
				0.03926097974181175
			],
			"translation": [
				-0.46984630823135376,
				0.1710100769996643,
				0
			]
		},
		{
			"mesh": 4,
			"name": "tooth_0_9",
			"scale": [
				0.09393341839313507,
				0.04641415551304817,
				0.04641415551304817
			],
			"translation": [
				-0.5,
				0,
				0
			]
		},
		{
			"mesh": 4,
			"name": "tooth_0_10",
			"rotation": [
				0,
				0.17364823818206787,
				0,
				0.9848078489303589
			],
			"scale": [
				0.1028624027967453,
				0.05082613229751587,
				0.05082612484693527
			],
			"translation": [
				-0.46984630823135376,
				-0.1710100919008255,
				0
			]
		},
		{
			"mesh": 4,
			"name": "tooth_0_11",
			"rotation": [
				0,
				0.342020183801651,
				0,
				0.9396926164627075
			],
			"scale": [
				0.10069878399372101,
				0.04975704848766327,
				0.04975704476237297
			],
			"translation": [
				-0.3830222189426422,
				-0.32139381766319275,
				0
			]
		},
		{
			"mesh": 4,
			"name": "tooth_0_12",
			"rotation": [
				0,
				0.5,
				0,
				0.8660255074501038
			],
			"scale": [
				0.08878616988658905,
				0.04387081041932106,
				0.04387081414461136
			],
			"translation": [
				-0.25,
				-0.4330127239227295,
				0
			]
		},
		{
			"mesh": 4,
			"name": "tooth_0_13",
			"rotation": [
				0,
				0.642787516117096,
				0,
				0.7660444974899292
			],
			"scale": [
				0.07452233880758286,
				0.03682279586791992,
				0.03682279586791992
			],
			"translation": [
				-0.08682409673929214,
				-0.49240389466285706,
				0
			]
		},
		{
			"mesh": 4,
			"name": "tooth_0_14",
			"rotation": [
				0,
				0.7660446763038635,
				0,
				0.642787516117096
			],
			"scale": [
				0.06676516681909561,
				0.03298984095454216,
				0.03298984095454216
			],
			"translation": [
				0.08682409673929214,
				-0.49240389466285706,
				0
			]
		},
		{
			"mesh": 4,
			"name": "tooth_0_15",
			"rotation": [
				0,
				0.866025447845459,
				0,
				0.49999991059303284
			],
			"scale": [
				0.0703318789601326,
				0.03475222736597061,
				0.03475222736597061
			],
			"translation": [
				0.2500000298023224,
				-0.4330126941204071,
				0
			]
		},
		{
			"mesh": 4,
			"name": "tooth_0_16",
			"rotation": [
				0,
				0.9396926760673523,
				0,
				0.34202006459236145
			],
			"scale": [
				0.08300755172967911,
				0.041015494614839554,
				0.041015494614839554
			],
			"translation": [
				0.3830221891403198,
				-0.32139384746551514,
				0
			]
		},
		{
			"mesh": 4,
			"name": "tooth_0_17",
			"rotation": [
				0,
				0.9848078489303589,
				0,
				0.1736481785774231
			],
			"scale": [
				0.09692054241895676,
				0.04789014905691147,
				0.04789014533162117
			],
			"translation": [
				0.46984630823135376,
				-0.1710100769996643,
				0
			]
		},
		{
			"children": [
				110,
				111,
				112,
				113,
				114,
				115,
				116,
				117,
				118,
				119,
				120,
				121,
				122,
				123,
				124,
				125,
				126,
				127
			],
			"name": "tooth_ring_0",
			"rotation": [
				0,
				0,
				0.07845903933048248,
				0.9969173669815063
			],
			"translation": [
				0,
				0,
				0.47999998927116394
			]
		},
		{
			"mesh": 4,
			"name": "tooth_1_0",
			"rotation": [
				0,
				-1,
				0,
				4.371138828673793e-08
			],
			"scale": [
				0.06373713165521622,
				0.030098091810941696,
				0.030098091810941696
			],
			"translation": [
				0.36000001430511475,
				0,
				0
			]
		},
		{
			"mesh": 4,
			"name": "tooth_1_1",
			"rotation": [
				0,
				-0.9807853102684021,
				0,
				0.19509032368659973
			],
			"scale": [
				0.05668560788035393,
				0.026768207550048828,
				0.02676820382475853
			],
			"translation": [
				0.33259662985801697,
				0.137766033411026,
				0
			]
		},
		{
			"mesh": 4,
			"name": "tooth_1_2",
			"rotation": [
				0,
				-0.9238795638084412,
				0,
				0.3826833963394165
			],
			"scale": [
				0.05914437025785446,
				0.027929291129112244,
				0.027929291129112244
			],
			"translation": [
				0.2545584440231323,
				0.2545584440231323,
				0
			]
		},
		{
			"mesh": 4,
			"name": "tooth_1_3",
			"rotation": [
				0,
				-0.8314696550369263,
				0,
				0.5555701851844788
			],
			"scale": [
				0.06958652287721634,
				0.03286030516028404,
				0.03286030516028404
			],
			"translation": [
				0.137766033411026,
				0.33259662985801697,
				0
			]
		},
		{
			"mesh": 4,
			"name": "tooth_1_4",
			"rotation": [
				0,
				-0.7071068286895752,
				0,
				0.7071068286895752
			],
			"scale": [
				0.08152744174003601,
				0.038499072194099426,
				0.038499072194099426
			],
			"translation": [
				0,
				0.36000001430511475,
				0
			]
		},
		{
			"mesh": 4,
			"name": "tooth_1_5",
			"rotation": [
				0,
				-0.5555701851844788,
				0,
				0.8314696550369263
			],
			"scale": [
				0.0875517949461937,
				0.04134390503168106,
				0.04134390503168106
			],
			"translation": [
				-0.137766033411026,
				0.33259662985801697,
				0
			]
		},
		{
			"mesh": 4,
			"name": "tooth_1_6",
			"rotation": [
				0,
				-0.38268348574638367,
				0,
				0.9238795042037964
			],
			"scale": [
				0.08391842991113663,
				0.03962814435362816,
				0.03962814062833786
			],
			"translation": [
				-0.2545584440231323,
				0.2545584440231323,
				0
			]
		},
		{
			"mesh": 4,
			"name": "tooth_1_7",
			"rotation": [
				0,
				-0.19509035348892212,
				0,
				0.9807853698730469
			],
			"scale": [
				0.07288368046283722,
				0.034417301416397095,
				0.0344172939658165
			],
			"translation": [
				-0.33259662985801697,
				0.137766033411026,
				0
			]
		},
		{
			"mesh": 4,
			"name": "tooth_1_8",
			"scale": [
				0.061300165951251984,
				0.02894730307161808,
				0.02894730120897293
			],
			"translation": [
				-0.36000001430511475,
				0,
				0
			]
		},
		{
			"mesh": 4,
			"name": "tooth_1_9",
			"rotation": [
				0,
				0.19509024918079376,
				0,
				0.9807853102684021
			],
			"scale": [
				0.05636127293109894,
				0.026615051552653313,
				0.026615051552653313
			],
			"translation": [
				-0.33259662985801697,
				-0.137766033411026,
				0
			]
		},
		{
			"mesh": 4,
			"name": "tooth_1_10",
			"rotation": [
				0,
				0.3826834261417389,
				0,
				0.9238795638084412
			],
			"scale": [
				0.061134081333875656,
				0.02886888012290001,
				0.02886887639760971
			],
			"translation": [
				-0.2545584440231323,
				-0.2545584440231323,
				0
			]
		},
		{
			"mesh": 4,
			"name": "tooth_1_11",
			"rotation": [
				0,
				0.5555703639984131,
				0,
				0.8314695358276367
			],
			"scale": [
				0.07265466451644897,
				0.03430914506316185,
				0.03430914506316185
			],
			"translation": [
				-0.137766033411026,
				-0.33259662985801697,
				0
			]
		},
		{
			"mesh": 4,
			"name": "tooth_1_12",
			"rotation": [
				0,
				0.7071067094802856,
				0,
				0.7071068286895752
			],
			"scale": [
				0.08376868069171906,
				0.03955744206905365,
				0.03955744206905365
			],
			"translation": [
				0,
				-0.36000001430511475,
				0
			]
		},
		{
			"mesh": 4,
			"name": "tooth_1_13",
			"rotation": [
				0,
				0.8314694762229919,
				0,
				0.5555704236030579
			],
			"scale": [
				0.08757432550191879,
				0.04135454073548317,
				0.04135454073548317
			],
			"translation": [
				0.137766033411026,
				-0.33259662985801697,
				0
			]
		},
		{
			"mesh": 4,
			"name": "tooth_1_14",
			"rotation": [
				0,
				0.9238795042037964,
				0,
				0.38268351554870605
			],
			"scale": [
				0.08170825242996216,
				0.03858445584774017,
				0.03858445584774017
			],
			"translation": [
				0.2545584440231323,
				-0.2545584440231323,
				0
			]
		},
		{
			"mesh": 4,
			"name": "tooth_1_15",
			"rotation": [
				0,
				0.9807853698730469,
				0,
				0.1950903981924057
			],
			"scale": [
				0.0698133260011673,
				0.03296740725636482,
				0.03296740725636482
			],
			"translation": [
				0.33259662985801697,
				-0.137766033411026,
				0
			]
		},
		{
			"children": [
				129,
				130,
				131,
				132,
				133,
				134,
				135,
				136,
				137,
				138,
				139,
				140,
				141,
				142,
				143,
				144
			],
			"name": "tooth_ring_1",
			"rotation": [
				0,
				0,
				-0.07845903933048248,
				0.9969173669815063
			],
			"translation": [
				0,
				0,
				0.40000003576278687
			]
		},
		{
			"mesh": 4,
			"name": "tooth_2_0",
			"rotation": [
				0,
				-1,
				0,
				4.371138828673793e-08
			],
			"scale": [
				0.0730198472738266,
				0.03407593071460724,
				0.03407593071460724
			],
			"translation": [
				0.23999999463558197,
				0,
				0
			]
		},
		{
			"mesh": 4,
			"name": "tooth_2_1",
			"rotation": [
				0,
				-0.9749280214309692,
				0,
				0.22252097725868225
			],
			"scale": [
				0.06855949759483337,
				0.03199443593621254,
				0.03199443593621254
			],
			"translation": [
				0.2162325233221054,
				0.10413210093975067,
				0
			]
		},
		{
			"mesh": 4,
			"name": "tooth_2_2",
			"rotation": [
				0,
				-0.9009689092636108,
				0,
				0.4338839054107666
			],
			"scale": [
				0.058783672749996185,
				0.027432382106781006,
				0.027432378381490707
			],
			"translation": [
				0.14963755011558533,
				0.18763954937458038,
				0
			]
		},
		{
			"mesh": 4,
			"name": "tooth_2_3",
			"rotation": [
				0,
				-0.7818315029144287,
				0,
				0.6234897971153259
			],
			"scale": [
				0.049763184040784836,
				0.023222820833325386,
				0.023222824558615685
			],
			"translation": [
				0.053405024111270905,
				0.23398269712924957,
				0
			]
		},
		{
			"mesh": 4,
			"name": "tooth_2_4",
			"rotation": [
				0,
				-0.6234897971153259,
				0,
				0.7818315029144287
			],
			"scale": [
				0.04709978774189949,
				0.021979903802275658,
				0.021979903802275658
			],
			"translation": [
				-0.0534050315618515,
				0.23398269712924957,
				0
			]
		},
		{
			"mesh": 4,
			"name": "tooth_2_5",
			"rotation": [
				0,
				-0.4338838756084442,
				0,
				0.9009689092636108
			],
			"scale": [
				0.052447471767663956,
				0.024475490674376488,
				0.02447548694908619
			],
			"translation": [
				-0.14963755011558533,
				0.18763956427574158,
				0
			]
		},
		{
			"mesh": 4,
			"name": "tooth_2_6",
			"rotation": [
				0,
				-0.22252097725868225,
				0,
				0.9749280214309692
			],
			"scale": [
				0.062485285103321075,
				0.029159804806113243,
				0.029159801080822945
			],
			"translation": [
				-0.2162325084209442,
				0.10413210093975067,
				0
			]
		},
		{
			"mesh": 4,
			"name": "tooth_2_7",
			"scale": [
				0.07097973674535751,
				0.03312388062477112,
				0.03312387689948082
			],
			"translation": [
				-0.23999999463558197,
				0,
				0
			]
		},
		{
			"mesh": 4,
			"name": "tooth_2_8",
			"rotation": [
				0,
				0.22252091765403748,
				0,
				0.9749280214309692
			],
			"scale": [
				0.07265574485063553,
				0.033906009048223495,
				0.033906009048223495
			],
			"translation": [
				-0.2162325233221054,
				-0.10413210093975067,
				0
			]
		},
		{
			"mesh": 4,
			"name": "tooth_2_9",
			"rotation": [
				0,
				0.43388378620147705,
				0,
				0.9009688496589661
			],
			"scale": [
				0.06647247821092606,
				0.03102049231529236,
				0.03102048859000206
			],
			"translation": [
				-0.14963755011558533,
				-0.18763954937458038,
				0
			]
		},
		{
			"mesh": 4,
			"name": "tooth_2_10",
			"rotation": [
				0,
				0.6234897375106812,
				0,
				0.7818315625190735
			],
			"scale": [
				0.05626979470252991,
				0.02625923976302147,
				0.02625923603773117
			],
			"translation": [
				-0.053405024111270905,
				-0.23398269712924957,
				0
			]
		},
		{
			"mesh": 4,
			"name": "tooth_2_11",
			"rotation": [
				0,
				0.7818317413330078,
				0,
				0.6234896183013916
			],
			"scale": [
				0.04838357865810394,
				0.022579006850719452,
				0.022579006850719452
			],
			"translation": [
				0.0534050315618515,
				-0.23398269712924957,
				0
			]
		},
		{
			"mesh": 4,
			"name": "tooth_2_12",
			"rotation": [
				0,
				0.9009689092636108,
				0,
				0.4338839054107666
			],
			"scale": [
				0.047711197286844254,
				0.022265229374170303,
				0.022265227511525154
			],
			"translation": [
				0.14963755011558533,
				-0.18763956427574158,
				0
			]
		},
		{
			"mesh": 4,
			"name": "tooth_2_13",
			"rotation": [
				0,
				0.9749279022216797,
				0,
				0.22252096235752106
			],
			"scale": [
				0.05467019975185394,
				0.025512760505080223,
				0.025512762367725372
			],
			"translation": [
				0.2162325084209442,
				-0.10413210093975067,
				0
			]
		},
		{
			"children": [
				146,
				147,
				148,
				149,
				150,
				151,
				152,
				153,
				154,
				155,
				156,
				157,
				158,
				159
			],
			"name": "tooth_ring_2",
			"rotation": [
				0,
				0,
				0.07845903933048248,
				0.9969173669815063
			],
			"translation": [
				0,
				0,
				0.32999998331069946
			]
		},
		{
			"children": [
				128,
				145,
				160
			],
			"name": "teeth",
			"scale": [
				1.4880112409591675,
				1.4880112409591675,
				1.4880112409591675
			],
			"translation": [
				0,
				0,
				-0.7529144287109375
			]
		}
	],
	"animations": [
		{
			"name": "idle-loop",
			"channels": [
				{
					"sampler": 0,
					"target": {
						"node": 0,
						"path": "weights"
					}
				},
				{
					"sampler": 1,
					"target": {
						"node": 6,
						"path": "rotation"
					}
				},
				{
					"sampler": 2,
					"target": {
						"node": 7,
						"path": "rotation"
					}
				},
				{
					"sampler": 3,
					"target": {
						"node": 8,
						"path": "rotation"
					}
				},
				{
					"sampler": 4,
					"target": {
						"node": 9,
						"path": "rotation"
					}
				},
				{
					"sampler": 5,
					"target": {
						"node": 10,
						"path": "rotation"
					}
				},
				{
					"sampler": 6,
					"target": {
						"node": 19,
						"path": "rotation"
					}
				},
				{
					"sampler": 7,
					"target": {
						"node": 27,
						"path": "rotation"
					}
				},
				{
					"sampler": 8,
					"target": {
						"node": 35,
						"path": "rotation"
					}
				},
				{
					"sampler": 9,
					"target": {
						"node": 43,
						"path": "rotation"
					}
				},
				{
					"sampler": 10,
					"target": {
						"node": 51,
						"path": "rotation"
					}
				},
				{
					"sampler": 11,
					"target": {
						"node": 59,
						"path": "rotation"
					}
				},
				{
					"sampler": 12,
					"target": {
						"node": 67,
						"path": "rotation"
					}
				},
				{
					"sampler": 13,
					"target": {
						"node": 75,
						"path": "rotation"
					}
				},
				{
					"sampler": 14,
					"target": {
						"node": 83,
						"path": "rotation"
					}
				},
				{
					"sampler": 15,
					"target": {
						"node": 91,
						"path": "rotation"
					}
				},
				{
					"sampler": 16,
					"target": {
						"node": 99,
						"path": "rotation"
					}
				},
				{
					"sampler": 17,
					"target": {
						"node": 107,
						"path": "rotation"
					}
				},
				{
					"sampler": 18,
					"target": {
						"node": 128,
						"path": "rotation"
					}
				},
				{
					"sampler": 19,
					"target": {
						"node": 110,
						"path": "scale"
					}
				},
				{
					"sampler": 20,
					"target": {
						"node": 111,
						"path": "scale"
					}
				},
				{
					"sampler": 21,
					"target": {
						"node": 112,
						"path": "scale"
					}
				},
				{
					"sampler": 22,
					"target": {
						"node": 113,
						"path": "scale"
					}
				},
				{
					"sampler": 23,
					"target": {
						"node": 114,
						"path": "scale"
					}
				},
				{
					"sampler": 24,
					"target": {
						"node": 115,
						"path": "scale"
					}
				},
				{
					"sampler": 25,
					"target": {
						"node": 116,
						"path": "scale"
					}
				},
				{
					"sampler": 26,
					"target": {
						"node": 117,
						"path": "scale"
					}
				},
				{
					"sampler": 27,
					"target": {
						"node": 118,
						"path": "scale"
					}
				},
				{
					"sampler": 28,
					"target": {
						"node": 119,
						"path": "scale"
					}
				},
				{
					"sampler": 29,
					"target": {
						"node": 120,
						"path": "scale"
					}
				},
				{
					"sampler": 30,
					"target": {
						"node": 121,
						"path": "scale"
					}
				},
				{
					"sampler": 31,
					"target": {
						"node": 122,
						"path": "scale"
					}
				},
				{
					"sampler": 32,
					"target": {
						"node": 123,
						"path": "scale"
					}
				},
				{
					"sampler": 33,
					"target": {
						"node": 124,
						"path": "scale"
					}
				},
				{
					"sampler": 34,
					"target": {
						"node": 125,
						"path": "scale"
					}
				},
				{
					"sampler": 35,
					"target": {
						"node": 126,
						"path": "scale"
					}
				},
				{
					"sampler": 36,
					"target": {
						"node": 127,
						"path": "scale"
					}
				},
				{
					"sampler": 37,
					"target": {
						"node": 145,
						"path": "rotation"
					}
				},
				{
					"sampler": 38,
					"target": {
						"node": 129,
						"path": "scale"
					}
				},
				{
					"sampler": 39,
					"target": {
						"node": 130,
						"path": "scale"
					}
				},
				{
					"sampler": 40,
					"target": {
						"node": 131,
						"path": "scale"
					}
				},
				{
					"sampler": 41,
					"target": {
						"node": 132,
						"path": "scale"
					}
				},
				{
					"sampler": 42,
					"target": {
						"node": 133,
						"path": "scale"
					}
				},
				{
					"sampler": 43,
					"target": {
						"node": 134,
						"path": "scale"
					}
				},
				{
					"sampler": 44,
					"target": {
						"node": 135,
						"path": "scale"
					}
				},
				{
					"sampler": 45,
					"target": {
						"node": 136,
						"path": "scale"
					}
				},
				{
					"sampler": 46,
					"target": {
						"node": 137,
						"path": "scale"
					}
				},
				{
					"sampler": 47,
					"target": {
						"node": 138,
						"path": "scale"
					}
				},
				{
					"sampler": 48,
					"target": {
						"node": 139,
						"path": "scale"
					}
				},
				{
					"sampler": 49,
					"target": {
						"node": 140,
						"path": "scale"
					}
				},
				{
					"sampler": 50,
					"target": {
						"node": 141,
						"path": "scale"
					}
				},
				{
					"sampler": 51,
					"target": {
						"node": 142,
						"path": "scale"
					}
				},
				{
					"sampler": 52,
					"target": {
						"node": 143,
						"path": "scale"
					}
				},
				{
					"sampler": 53,
					"target": {
						"node": 144,
						"path": "scale"
					}
				},
				{
					"sampler": 54,
					"target": {
						"node": 160,
						"path": "rotation"
					}
				},
				{
					"sampler": 55,
					"target": {
						"node": 146,
						"path": "scale"
					}
				},
				{
					"sampler": 56,
					"target": {
						"node": 147,
						"path": "scale"
					}
				},
				{
					"sampler": 57,
					"target": {
						"node": 148,
						"path": "scale"
					}
				},
				{
					"sampler": 58,
					"target": {
						"node": 149,
						"path": "scale"
					}
				},
				{
					"sampler": 59,
					"target": {
						"node": 150,
						"path": "scale"
					}
				},
				{
					"sampler": 60,
					"target": {
						"node": 151,
						"path": "scale"
					}
				},
				{
					"sampler": 61,
					"target": {
						"node": 152,
						"path": "scale"
					}
				},
				{
					"sampler": 62,
					"target": {
						"node": 153,
						"path": "scale"
					}
				},
				{
					"sampler": 63,
					"target": {
						"node": 154,
						"path": "scale"
					}
				},
				{
					"sampler": 64,
					"target": {
						"node": 155,
						"path": "scale"
					}
				},
				{
					"sampler": 65,
					"target": {
						"node": 156,
						"path": "scale"
					}
				},
				{
					"sampler": 66,
					"target": {
						"node": 157,
						"path": "scale"
					}
				},
				{
					"sampler": 67,
					"target": {
						"node": 158,
						"path": "scale"
					}
				},
				{
					"sampler": 68,
					"target": {
						"node": 159,
						"path": "scale"
					}
				}
			],
			"samplers": [
				{
					"input": 18,
					"interpolation": "LINEAR",
					"output": 19
				},
				{
					"input": 20,
					"interpolation": "LINEAR",
					"output": 21
				},
				{
					"input": 20,
					"interpolation": "LINEAR",
					"output": 22
				},
				{
					"input": 20,
					"interpolation": "LINEAR",
					"output": 23
				},
				{
					"input": 20,
					"interpolation": "LINEAR",
					"output": 24
				},
				{
					"input": 20,
					"interpolation": "LINEAR",
					"output": 25
				},
				{
					"input": 18,
					"interpolation": "LINEAR",
					"output": 26
				},
				{
					"input": 20,
					"interpolation": "LINEAR",
					"output": 27
				},
				{
					"input": 20,
					"interpolation": "LINEAR",
					"output": 28
				},
				{
					"input": 20,
					"interpolation": "LINEAR",
					"output": 29
				},
				{
					"input": 20,
					"interpolation": "LINEAR",
					"output": 30
				},
				{
					"input": 20,
					"interpolation": "LINEAR",
					"output": 31
				},
				{
					"input": 20,
					"interpolation": "LINEAR",
					"output": 32
				},
				{
					"input": 20,
					"interpolation": "LINEAR",
					"output": 33
				},
				{
					"input": 20,
					"interpolation": "LINEAR",
					"output": 34
				},
				{
					"input": 20,
					"interpolation": "LINEAR",
					"output": 35
				},
				{
					"input": 20,
					"interpolation": "LINEAR",
					"output": 36
				},
				{
					"input": 20,
					"interpolation": "LINEAR",
					"output": 37
				},
				{
					"input": 38,
					"interpolation": "LINEAR",
					"output": 39
				},
				{
					"input": 40,
					"interpolation": "LINEAR",
					"output": 41
				},
				{
					"input": 40,
					"interpolation": "LINEAR",
					"output": 42
				},
				{
					"input": 40,
					"interpolation": "LINEAR",
					"output": 43
				},
				{
					"input": 40,
					"interpolation": "LINEAR",
					"output": 44
				},
				{
					"input": 40,
					"interpolation": "LINEAR",
					"output": 45
				},
				{
					"input": 40,
					"interpolation": "LINEAR",
					"output": 46
				},
				{
					"input": 40,
					"interpolation": "LINEAR",
					"output": 47
				},
				{
					"input": 40,
					"interpolation": "LINEAR",
					"output": 48
				},
				{
					"input": 40,
					"interpolation": "LINEAR",
					"output": 49
				},
				{
					"input": 40,
					"interpolation": "LINEAR",
					"output": 50
				},
				{
					"input": 40,
					"interpolation": "LINEAR",
					"output": 51
				},
				{
					"input": 40,
					"interpolation": "LINEAR",
					"output": 52
				},
				{
					"input": 40,
					"interpolation": "LINEAR",
					"output": 53
				},
				{
					"input": 40,
					"interpolation": "LINEAR",
					"output": 54
				},
				{
					"input": 40,
					"interpolation": "LINEAR",
					"output": 55
				},
				{
					"input": 40,
					"interpolation": "LINEAR",
					"output": 56
				},
				{
					"input": 40,
					"interpolation": "LINEAR",
					"output": 57
				},
				{
					"input": 40,
					"interpolation": "LINEAR",
					"output": 58
				},
				{
					"input": 38,
					"interpolation": "LINEAR",
					"output": 59
				},
				{
					"input": 40,
					"interpolation": "LINEAR",
					"output": 60
				},
				{
					"input": 40,
					"interpolation": "LINEAR",
					"output": 61
				},
				{
					"input": 40,
					"interpolation": "LINEAR",
					"output": 62
				},
				{
					"input": 40,
					"interpolation": "LINEAR",
					"output": 63
				},
				{
					"input": 40,
					"interpolation": "LINEAR",
					"output": 64
				},
				{
					"input": 40,
					"interpolation": "LINEAR",
					"output": 65
				},
				{
					"input": 40,
					"interpolation": "LINEAR",
					"output": 66
				},
				{
					"input": 40,
					"interpolation": "LINEAR",
					"output": 67
				},
				{
					"input": 40,
					"interpolation": "LINEAR",
					"output": 68
				},
				{
					"input": 40,
					"interpolation": "LINEAR",
					"output": 69
				},
				{
					"input": 40,
					"interpolation": "LINEAR",
					"output": 70
				},
				{
					"input": 40,
					"interpolation": "LINEAR",
					"output": 71
				},
				{
					"input": 40,
					"interpolation": "LINEAR",
					"output": 72
				},
				{
					"input": 40,
					"interpolation": "LINEAR",
					"output": 73
				},
				{
					"input": 40,
					"interpolation": "LINEAR",
					"output": 74
				},
				{
					"input": 40,
					"interpolation": "LINEAR",
					"output": 75
				},
				{
					"input": 38,
					"interpolation": "LINEAR",
					"output": 39
				},
				{
					"input": 40,
					"interpolation": "LINEAR",
					"output": 76
				},
				{
					"input": 40,
					"interpolation": "LINEAR",
					"output": 77
				},
				{
					"input": 40,
					"interpolation": "LINEAR",
					"output": 78
				},
				{
					"input": 40,
					"interpolation": "LINEAR",
					"output": 79
				},
				{
					"input": 40,
					"interpolation": "LINEAR",
					"output": 80
				},
				{
					"input": 40,
					"interpolation": "LINEAR",
					"output": 81
				},
				{
					"input": 40,
					"interpolation": "LINEAR",
					"output": 82
				},
				{
					"input": 40,
					"interpolation": "LINEAR",
					"output": 83
				},
				{
					"input": 40,
					"interpolation": "LINEAR",
					"output": 84
				},
				{
					"input": 40,
					"interpolation": "LINEAR",
					"output": 85
				},
				{
					"input": 40,
					"interpolation": "LINEAR",
					"output": 86
				},
				{
					"input": 40,
					"interpolation": "LINEAR",
					"output": 87
				},
				{
					"input": 40,
					"interpolation": "LINEAR",
					"output": 88
				},
				{
					"input": 40,
					"interpolation": "LINEAR",
					"output": 89
				}
			]
		}
	],
	"materials": [
		{
			"name": "voxel_shell",
			"pbrMetallicRoughness": {
				"baseColorFactor": [
					0.0659395381808281,
					0.0659395381808281,
					0.0659395381808281,
					1
				]
			}
		},
		{
			"emissiveFactor": [
				0.023153366521000862,
				0.005181516520678997,
				0.0802198201417923
			],
			"name": "voxel_limb_glow",
			"pbrMetallicRoughness": {
				"baseColorFactor": [
					0.806959867477417,
					0.007865614257752895,
					0,
					1
				]
			}
		},
		{
			"name": "voxel_fang",
			"pbrMetallicRoughness": {
				"baseColorFactor": [
					0.7119975686073303,
					0,
					0.007188927847892046,
					1
				]
			}
		},
		{
			"doubleSided": true,
			"name": "FlatBlack"
		},
		{
			"doubleSided": true,
			"name": "voxel_tooth",
			"pbrMetallicRoughness": {
				"baseColorFactor": [
					0.09564623236656189,
					0.08710287511348724,
					0.05234112963080406,
					1
				],
				"metallicFactor": 0,
				"roughnessFactor": 0.44999998807907104
			}
		}
	],
	"meshes": [
		{
			"extras": {
				"targetNames": [
					"travel"
				]
			},
			"name": "PathCubes_Baked",
			"primitives": [
				{
					"attributes": {
						"POSITION": 0,
						"NORMAL": 1
					},
					"indices": 2,
					"material": 0,
					"targets": [
						{
							"POSITION": 3,
							"NORMAL": 4
						}
					]
				}
			],
			"weights": [
				0
			]
		},
		{
			"name": "Mesh_3",
			"primitives": [
				{
					"attributes": {
						"POSITION": 5,
						"NORMAL": 6,
						"TEXCOORD_0": 7
					},
					"indices": 8,
					"material": 1
				}
			]
		},
		{
			"name": "MandibleVoxel",
			"primitives": [
				{
					"attributes": {
						"POSITION": 9,
						"NORMAL": 10
					},
					"indices": 11,
					"material": 2
				}
			]
		},
		{
			"name": "Sphere.001",
			"primitives": [
				{
					"attributes": {
						"POSITION": 12,
						"NORMAL": 13,
						"TEXCOORD_0": 14
					},
					"indices": 15,
					"material": 3
				}
			]
		},
		{
			"name": "ToothVoxel",
			"primitives": [
				{
					"attributes": {
						"POSITION": 16,
						"NORMAL": 17
					},
					"indices": 11,
					"material": 4
				}
			]
		}
	],
	"skins": [
		{
			"inverseBindMatrices": 90,
			"joints": [
				3,
				2,
				1
			],
			"name": "Spline_Semicircle_Rig"
		}
	],
	"accessors": [
		{
			"bufferView": 0,
			"componentType": 5126,
			"count": 8032,
			"max": [
				1.2234574556350708,
				0.9033000469207764,
				0.9050490260124207
			],
			"min": [
				-0.48598799109458923,
				-0.9033006429672241,
				-0.9050483107566833
			],
			"type": "VEC3"
		},
		{
			"bufferView": 1,
			"componentType": 5126,
			"count": 8032,
			"type": "VEC3"
		},
		{
			"bufferView": 2,
			"componentType": 5123,
			"count": 15552,
			"type": "SCALAR"
		},
		{
			"bufferView": 3,
			"componentType": 5126,
			"count": 8032,
			"max": [
				0.23397421836853027,
				0.24422074854373932,
				0.24173401296138763
			],
			"min": [
				-0.2686578035354614,
				-0.2442205548286438,
				-0.2417338341474533
			],
			"type": "VEC3"
		},
		{
			"componentType": 5126,
			"count": 8032,
			"sparse": {
				"count": 6592,
				"indices": {
					"bufferView": 4,
					"componentType": 5123
				},
				"values": {
					"bufferView": 5
				}
			},
			"type": "VEC3"
		},
		{
			"bufferView": 6,
			"componentType": 5126,
			"count": 24,
			"max": [
				0.5,
				0.5,
				0.4999997317790985
			],
			"min": [
				-0.5,
				-0.5,
				-0.5
			],
			"type": "VEC3"
		},
		{
			"bufferView": 7,
			"componentType": 5126,
			"count": 24,
			"type": "VEC3"
		},
		{
			"bufferView": 8,
			"componentType": 5126,
			"count": 24,
			"type": "VEC2"
		},
		{
			"bufferView": 9,
			"componentType": 5123,
			"count": 36,
			"type": "SCALAR"
		},
		{
			"bufferView": 10,
			"componentType": 5126,
			"count": 24,
			"max": [
				0.5,
				0.5,
				0.5
			],
			"min": [
				-0.5,
				-0.5,
				-0.5
			],
			"type": "VEC3"
		},
		{
			"bufferView": 11,
			"componentType": 5126,
			"count": 24,
			"type": "VEC3"
		},
		{
			"bufferView": 12,
			"componentType": 5123,
			"count": 36,
			"type": "SCALAR"
		},
		{
			"bufferView": 13,
			"componentType": 5126,
			"count": 1984,
			"max": [
				0.7796041369438171,
				1.0461523532867432,
				0.7795562148094177
			],
			"min": [
				-0.779603898525238,
				-0.9346815943717957,
				-0.779651403427124
			],
			"type": "VEC3"
		},
		{
			"bufferView": 14,
			"componentType": 5126,
			"count": 1984,
			"type": "VEC3"
		},
		{
			"bufferView": 15,
			"componentType": 5126,
			"count": 1984,
			"type": "VEC2"
		},
		{
			"bufferView": 16,
			"componentType": 5123,
			"count": 2880,
			"type": "SCALAR"
		},
		{
			"bufferView": 17,
			"componentType": 5126,
			"count": 24,
			"max": [
				0.5,
				0.5,
				0.5
			],
			"min": [
				-0.5,
				-0.5,
				-0.5
			],
			"type": "VEC3"
		},
		{
			"bufferView": 18,
			"componentType": 5126,
			"count": 24,
			"type": "VEC3"
		},
		{
			"bufferView": 19,
			"componentType": 5126,
			"count": 21,
			"max": [
				0.8333333333333334
			],
			"min": [
				0
			],
			"type": "SCALAR"
		},
		{
			"bufferView": 20,
			"componentType": 5126,
			"count": 21,
			"type": "SCALAR"
		},
		{
			"bufferView": 21,
			"componentType": 5126,
			"count": 21,
			"max": [
				0.875
			],
			"min": [
				0.041666666666666664
			],
			"type": "SCALAR"
		},
		{
			"bufferView": 22,
			"componentType": 5126,
			"count": 21,
			"type": "VEC4"
		},
		{
			"bufferView": 23,
			"componentType": 5126,
			"count": 21,
			"type": "VEC4"
		},
		{
			"bufferView": 24,
			"componentType": 5126,
			"count": 21,
			"type": "VEC4"
		},
		{
			"bufferView": 25,
			"componentType": 5126,
			"count": 21,
			"type": "VEC4"
		},
		{
			"bufferView": 26,
			"componentType": 5126,
			"count": 21,
			"type": "VEC4"
		},
		{
			"bufferView": 27,
			"componentType": 5126,
			"count": 21,
			"type": "VEC4"
		},
		{
			"bufferView": 28,
			"componentType": 5126,
			"count": 21,
			"type": "VEC4"
		},
		{
			"bufferView": 29,
			"componentType": 5126,
			"count": 21,
			"type": "VEC4"
		},
		{
			"bufferView": 30,
			"componentType": 5126,
			"count": 21,
			"type": "VEC4"
		},
		{
			"bufferView": 31,
			"componentType": 5126,
			"count": 21,
			"type": "VEC4"
		},
		{
			"bufferView": 32,
			"componentType": 5126,
			"count": 21,
			"type": "VEC4"
		},
		{
			"bufferView": 33,
			"componentType": 5126,
			"count": 21,
			"type": "VEC4"
		},
		{
			"bufferView": 34,
			"componentType": 5126,
			"count": 21,
			"type": "VEC4"
		},
		{
			"bufferView": 35,
			"componentType": 5126,
			"count": 21,
			"type": "VEC4"
		},
		{
			"bufferView": 36,
			"componentType": 5126,
			"count": 21,
			"type": "VEC4"
		},
		{
			"bufferView": 37,
			"componentType": 5126,
			"count": 21,
			"type": "VEC4"
		},
		{
			"bufferView": 38,
			"componentType": 5126,
			"count": 21,
			"type": "VEC4"
		},
		{
			"bufferView": 39,
			"componentType": 5126,
			"count": 41,
			"max": [
				1.7083333333333333
			],
			"min": [
				0.041666666666666664
			],
			"type": "SCALAR"
		},
		{
			"bufferView": 40,
			"componentType": 5126,
			"count": 41,
			"type": "VEC4"
		},
		{
			"bufferView": 41,
			"componentType": 5126,
			"count": 10,
			"max": [
				0.4166666666666667
			],
			"min": [
				0.041666666666666664
			],
			"type": "SCALAR"
		},
		{
			"bufferView": 42,
			"componentType": 5126,
			"count": 10,
			"type": "VEC3"
		},
		{
			"bufferView": 43,
			"componentType": 5126,
			"count": 10,
			"type": "VEC3"
		},
		{
			"bufferView": 44,
			"componentType": 5126,
			"count": 10,
			"type": "VEC3"
		},
		{
			"bufferView": 45,
			"componentType": 5126,
			"count": 10,
			"type": "VEC3"
		},
		{
			"bufferView": 46,
			"componentType": 5126,
			"count": 10,
			"type": "VEC3"
		},
		{
			"bufferView": 47,
			"componentType": 5126,
			"count": 10,
			"type": "VEC3"
		},
		{
			"bufferView": 48,
			"componentType": 5126,
			"count": 10,
			"type": "VEC3"
		},
		{
			"bufferView": 49,
			"componentType": 5126,
			"count": 10,
			"type": "VEC3"
		},
		{
			"bufferView": 50,
			"componentType": 5126,
			"count": 10,
			"type": "VEC3"
		},
		{
			"bufferView": 51,
			"componentType": 5126,
			"count": 10,
			"type": "VEC3"
		},
		{
			"bufferView": 52,
			"componentType": 5126,
			"count": 10,
			"type": "VEC3"
		},
		{
			"bufferView": 53,
			"componentType": 5126,
			"count": 10,
			"type": "VEC3"
		},
		{
			"bufferView": 54,
			"componentType": 5126,
			"count": 10,
			"type": "VEC3"
		},
		{
			"bufferView": 55,
			"componentType": 5126,
			"count": 10,
			"type": "VEC3"
		},
		{
			"bufferView": 56,
			"componentType": 5126,
			"count": 10,
			"type": "VEC3"
		},
		{
			"bufferView": 57,
			"componentType": 5126,
			"count": 10,
			"type": "VEC3"
		},
		{
			"bufferView": 58,
			"componentType": 5126,
			"count": 10,
			"type": "VEC3"
		},
		{
			"bufferView": 59,
			"componentType": 5126,
			"count": 10,
			"type": "VEC3"
		},
		{
			"bufferView": 60,
			"componentType": 5126,
			"count": 41,
			"type": "VEC4"
		},
		{
			"bufferView": 61,
			"componentType": 5126,
			"count": 10,
			"type": "VEC3"
		},
		{
			"bufferView": 62,
			"componentType": 5126,
			"count": 10,
			"type": "VEC3"
		},
		{
			"bufferView": 63,
			"componentType": 5126,
			"count": 10,
			"type": "VEC3"
		},
		{
			"bufferView": 64,
			"componentType": 5126,
			"count": 10,
			"type": "VEC3"
		},
		{
			"bufferView": 65,
			"componentType": 5126,
			"count": 10,
			"type": "VEC3"
		},
		{
			"bufferView": 66,
			"componentType": 5126,
			"count": 10,
			"type": "VEC3"
		},
		{
			"bufferView": 67,
			"componentType": 5126,
			"count": 10,
			"type": "VEC3"
		},
		{
			"bufferView": 68,
			"componentType": 5126,
			"count": 10,
			"type": "VEC3"
		},
		{
			"bufferView": 69,
			"componentType": 5126,
			"count": 10,
			"type": "VEC3"
		},
		{
			"bufferView": 70,
			"componentType": 5126,
			"count": 10,
			"type": "VEC3"
		},
		{
			"bufferView": 71,
			"componentType": 5126,
			"count": 10,
			"type": "VEC3"
		},
		{
			"bufferView": 72,
			"componentType": 5126,
			"count": 10,
			"type": "VEC3"
		},
		{
			"bufferView": 73,
			"componentType": 5126,
			"count": 10,
			"type": "VEC3"
		},
		{
			"bufferView": 74,
			"componentType": 5126,
			"count": 10,
			"type": "VEC3"
		},
		{
			"bufferView": 75,
			"componentType": 5126,
			"count": 10,
			"type": "VEC3"
		},
		{
			"bufferView": 76,
			"componentType": 5126,
			"count": 10,
			"type": "VEC3"
		},
		{
			"bufferView": 77,
			"componentType": 5126,
			"count": 10,
			"type": "VEC3"
		},
		{
			"bufferView": 78,
			"componentType": 5126,
			"count": 10,
			"type": "VEC3"
		},
		{
			"bufferView": 79,
			"componentType": 5126,
			"count": 10,
			"type": "VEC3"
		},
		{
			"bufferView": 80,
			"componentType": 5126,
			"count": 10,
			"type": "VEC3"
		},
		{
			"bufferView": 81,
			"componentType": 5126,
			"count": 10,
			"type": "VEC3"
		},
		{
			"bufferView": 82,
			"componentType": 5126,
			"count": 10,
			"type": "VEC3"
		},
		{
			"bufferView": 83,
			"componentType": 5126,
			"count": 10,
			"type": "VEC3"
		},
		{
			"bufferView": 84,
			"componentType": 5126,
			"count": 10,
			"type": "VEC3"
		},
		{
			"bufferView": 85,
			"componentType": 5126,
			"count": 10,
			"type": "VEC3"
		},
		{
			"bufferView": 86,
			"componentType": 5126,
			"count": 10,
			"type": "VEC3"
		},
		{
			"bufferView": 87,
			"componentType": 5126,
			"count": 10,
			"type": "VEC3"
		},
		{
			"bufferView": 88,
			"componentType": 5126,
			"count": 10,
			"type": "VEC3"
		},
		{
			"bufferView": 89,
			"componentType": 5126,
			"count": 10,
			"type": "VEC3"
		},
		{
			"bufferView": 90,
			"componentType": 5126,
			"count": 10,
			"type": "VEC3"
		},
		{
			"bufferView": 91,
			"componentType": 5126,
			"count": 3,
			"type": "MAT4"
		}
	],
	"bufferViews": [
		{
			"buffer": 0,
			"byteLength": 96384,
			"byteOffset": 0,
			"target": 34962
		},
		{
			"buffer": 0,
			"byteLength": 96384,
			"byteOffset": 96384,
			"target": 34962
		},
		{
			"buffer": 0,
			"byteLength": 31104,
			"byteOffset": 192768,
			"target": 34963
		},
		{
			"buffer": 0,
			"byteLength": 96384,
			"byteOffset": 223872,
			"target": 34962
		},
		{
			"buffer": 0,
			"byteLength": 13184,
			"byteOffset": 320256
		},
		{
			"buffer": 0,
			"byteLength": 79104,
			"byteOffset": 333440
		},
		{
			"buffer": 0,
			"byteLength": 288,
			"byteOffset": 412544,
			"target": 34962
		},
		{
			"buffer": 0,
			"byteLength": 288,
			"byteOffset": 412832,
			"target": 34962
		},
		{
			"buffer": 0,
			"byteLength": 192,
			"byteOffset": 413120,
			"target": 34962
		},
		{
			"buffer": 0,
			"byteLength": 72,
			"byteOffset": 413312,
			"target": 34963
		},
		{
			"buffer": 0,
			"byteLength": 288,
			"byteOffset": 413384,
			"target": 34962
		},
		{
			"buffer": 0,
			"byteLength": 288,
			"byteOffset": 413672,
			"target": 34962
		},
		{
			"buffer": 0,
			"byteLength": 72,
			"byteOffset": 413960,
			"target": 34963
		},
		{
			"buffer": 0,
			"byteLength": 23808,
			"byteOffset": 414032,
			"target": 34962
		},
		{
			"buffer": 0,
			"byteLength": 23808,
			"byteOffset": 437840,
			"target": 34962
		},
		{
			"buffer": 0,
			"byteLength": 15872,
			"byteOffset": 461648,
			"target": 34962
		},
		{
			"buffer": 0,
			"byteLength": 5760,
			"byteOffset": 477520,
			"target": 34963
		},
		{
			"buffer": 0,
			"byteLength": 288,
			"byteOffset": 483280,
			"target": 34962
		},
		{
			"buffer": 0,
			"byteLength": 288,
			"byteOffset": 483568,
			"target": 34962
		},
		{
			"buffer": 0,
			"byteLength": 84,
			"byteOffset": 483856
		},
		{
			"buffer": 0,
			"byteLength": 84,
			"byteOffset": 483940
		},
		{
			"buffer": 0,
			"byteLength": 84,
			"byteOffset": 484024
		},
		{
			"buffer": 0,
			"byteLength": 336,
			"byteOffset": 484108
		},
		{
			"buffer": 0,
			"byteLength": 336,
			"byteOffset": 484444
		},
		{
			"buffer": 0,
			"byteLength": 336,
			"byteOffset": 484780
		},
		{
			"buffer": 0,
			"byteLength": 336,
			"byteOffset": 485116
		},
		{
			"buffer": 0,
			"byteLength": 336,
			"byteOffset": 485452
		},
		{
			"buffer": 0,
			"byteLength": 336,
			"byteOffset": 485788
		},
		{
			"buffer": 0,
			"byteLength": 336,
			"byteOffset": 486124
		},
		{
			"buffer": 0,
			"byteLength": 336,
			"byteOffset": 486460
		},
		{
			"buffer": 0,
			"byteLength": 336,
			"byteOffset": 486796
		},
		{
			"buffer": 0,
			"byteLength": 336,
			"byteOffset": 487132
		},
		{
			"buffer": 0,
			"byteLength": 336,
			"byteOffset": 487468
		},
		{
			"buffer": 0,
			"byteLength": 336,
			"byteOffset": 487804
		},
		{
			"buffer": 0,
			"byteLength": 336,
			"byteOffset": 488140
		},
		{
			"buffer": 0,
			"byteLength": 336,
			"byteOffset": 488476
		},
		{
			"buffer": 0,
			"byteLength": 336,
			"byteOffset": 488812
		},
		{
			"buffer": 0,
			"byteLength": 336,
			"byteOffset": 489148
		},
		{
			"buffer": 0,
			"byteLength": 336,
			"byteOffset": 489484
		},
		{
			"buffer": 0,
			"byteLength": 164,
			"byteOffset": 489820
		},
		{
			"buffer": 0,
			"byteLength": 656,
			"byteOffset": 489984
		},
		{
			"buffer": 0,
			"byteLength": 40,
			"byteOffset": 490640
		},
		{
			"buffer": 0,
			"byteLength": 120,
			"byteOffset": 490680
		},
		{
			"buffer": 0,
			"byteLength": 120,
			"byteOffset": 490800
		},
		{
			"buffer": 0,
			"byteLength": 120,
			"byteOffset": 490920
		},
		{
			"buffer": 0,
			"byteLength": 120,
			"byteOffset": 491040
		},
		{
			"buffer": 0,
			"byteLength": 120,
			"byteOffset": 491160
		},
		{
			"buffer": 0,
			"byteLength": 120,
			"byteOffset": 491280
		},
		{
			"buffer": 0,
			"byteLength": 120,
			"byteOffset": 491400
		},
		{
			"buffer": 0,
			"byteLength": 120,
			"byteOffset": 491520
		},
		{
			"buffer": 0,
			"byteLength": 120,
			"byteOffset": 491640
		},
		{
			"buffer": 0,
			"byteLength": 120,
			"byteOffset": 491760
		},
		{
			"buffer": 0,
			"byteLength": 120,
			"byteOffset": 491880
		},
		{
			"buffer": 0,
			"byteLength": 120,
			"byteOffset": 492000
		},
		{
			"buffer": 0,
			"byteLength": 120,
			"byteOffset": 492120
		},
		{
			"buffer": 0,
			"byteLength": 120,
			"byteOffset": 492240
		},
		{
			"buffer": 0,
			"byteLength": 120,
			"byteOffset": 492360
		},
		{
			"buffer": 0,
			"byteLength": 120,
			"byteOffset": 492480
		},
		{
			"buffer": 0,
			"byteLength": 120,
			"byteOffset": 492600
		},
		{
			"buffer": 0,
			"byteLength": 120,
			"byteOffset": 492720
		},
		{
			"buffer": 0,
			"byteLength": 656,
			"byteOffset": 492840
		},
		{
			"buffer": 0,
			"byteLength": 120,
			"byteOffset": 493496
		},
		{
			"buffer": 0,
			"byteLength": 120,
			"byteOffset": 493616
		},
		{
			"buffer": 0,
			"byteLength": 120,
			"byteOffset": 493736
		},
		{
			"buffer": 0,
			"byteLength": 120,
			"byteOffset": 493856
		},
		{
			"buffer": 0,
			"byteLength": 120,
			"byteOffset": 493976
		},
		{
			"buffer": 0,
			"byteLength": 120,
			"byteOffset": 494096
		},
		{
			"buffer": 0,
			"byteLength": 120,
			"byteOffset": 494216
		},
		{
			"buffer": 0,
			"byteLength": 120,
			"byteOffset": 494336
		},
		{
			"buffer": 0,
			"byteLength": 120,
			"byteOffset": 494456
		},
		{
			"buffer": 0,
			"byteLength": 120,
			"byteOffset": 494576
		},
		{
			"buffer": 0,
			"byteLength": 120,
			"byteOffset": 494696
		},
		{
			"buffer": 0,
			"byteLength": 120,
			"byteOffset": 494816
		},
		{
			"buffer": 0,
			"byteLength": 120,
			"byteOffset": 494936
		},
		{
			"buffer": 0,
			"byteLength": 120,
			"byteOffset": 495056
		},
		{
			"buffer": 0,
			"byteLength": 120,
			"byteOffset": 495176
		},
		{
			"buffer": 0,
			"byteLength": 120,
			"byteOffset": 495296
		},
		{
			"buffer": 0,
			"byteLength": 120,
			"byteOffset": 495416
		},
		{
			"buffer": 0,
			"byteLength": 120,
			"byteOffset": 495536
		},
		{
			"buffer": 0,
			"byteLength": 120,
			"byteOffset": 495656
		},
		{
			"buffer": 0,
			"byteLength": 120,
			"byteOffset": 495776
		},
		{
			"buffer": 0,
			"byteLength": 120,
			"byteOffset": 495896
		},
		{
			"buffer": 0,
			"byteLength": 120,
			"byteOffset": 496016
		},
		{
			"buffer": 0,
			"byteLength": 120,
			"byteOffset": 496136
		},
		{
			"buffer": 0,
			"byteLength": 120,
			"byteOffset": 496256
		},
		{
			"buffer": 0,
			"byteLength": 120,
			"byteOffset": 496376
		},
		{
			"buffer": 0,
			"byteLength": 120,
			"byteOffset": 496496
		},
		{
			"buffer": 0,
			"byteLength": 120,
			"byteOffset": 496616
		},
		{
			"buffer": 0,
			"byteLength": 120,
			"byteOffset": 496736
		},
		{
			"buffer": 0,
			"byteLength": 120,
			"byteOffset": 496856
		},
		{
			"buffer": 0,
			"byteLength": 120,
			"byteOffset": 496976
		},
		{
			"buffer": 0,
			"byteLength": 192,
			"byteOffset": 497096
		}
	],
	"buffers": [
		{
			"byteLength": 497288,
			"uri": "sk_fractal_voxel_monster.bin"
		}
	]
}
