{"accessors":[{"bufferView":0,"componentType":5126,"count":149633,"max":[115.04107666015625,-18.66046714782715,102.60816955566406],"min":[-97.17989349365234,-86.68284606933594,-71.59852600097656],"normalized":false,"type":"VEC3"},{"bufferView":1,"componentType":5126,"count":149633,"max":[1.0,1.0,1.0,1.0],"min":[-1.0,-1.0,-1.0,-1.0],"normalized":false,"type":"VEC4"},{"bufferView":2,"componentType":5126,"count":149633,"max":[1.0,1.0,1.0],"min":[-1.0,-1.0,-1.0],"normalized":false,"type":"VEC3"},{"bufferView":3,"componentType":5126,"count":149633,"max":[1.0,1.0],"min":[0.0,0.0],"normalized":false,"type":"VEC2"},{"bufferView":4,"componentType":5125,"count":371760,"max":[149632],"min":[0],"normalized":false,"type":"SCALAR"}],"asset":{"generator":"Godot Engine v4.7.1.stable.official@a13da4feb8d8aefc283c3763d33a2f170a18d541","version":"2.0"},"bufferViews":[{"buffer":0,"byteLength":1795596,"byteStride":12,"target":34962},{"buffer":0,"byteLength":2394128,"byteOffset":1795596,"byteStride":16,"target":34962},{"buffer":0,"byteLength":1795596,"byteOffset":4189724,"byteStride":12,"target":34962},{"buffer":0,"byteLength":1197064,"byteOffset":5985320,"byteStride":8,"target":34962},{"buffer":0,"byteLength":1487040,"byteOffset":7182384,"target":34963}],"buffers":[{"byteLength":8669424,"uri":"sm_level_full_blockout0.bin"}],"extensionsUsed":["GODOT_single_root"],"materials":[{"name":"rock","pbrMetallicRoughness":{"baseColorFactor":[0.09462962299585342,0.10048149526119232,0.11280477046966553,1.0],"metallicFactor":0.10000000149011612,"roughnessFactor":0.8500000238418579}}],"meshes":[{"name":"level_rock","primitives":[{"attributes":{"NORMAL":2,"POSITION":0,"TANGENT":1,"TEXCOORD_0":3},"indices":4,"material":0,"mode":4}]}],"nodes":[{"children":[1],"name":"sm_level_full_blockout"},{"mesh":0,"name":"sm_level_full_blockout_mesh-col"}],"scene":0,"scenes":[{"nodes":[0]}]}