{
	"asset":{
		"generator":"Khronos glTF Blender I/O v5.1.20",
		"version":"2.0"
	},
	"extensionsUsed":[
		"KHR_materials_specular"
	],
	"scene":0,
	"scenes":[
		{
			"name":"Scene",
			"nodes":[
				0
			]
		}
	],
	"nodes":[
		{
			"mesh":0,
			"name":"Untitled.001",
			"rotation":[
				0.7071068286895752,
				0,
				0,
				0.7071068286895752
			]
		}
	],
	"materials":[
		{
			"doubleSided":true,
			"extensions":{
				"KHR_materials_specular":{
					"specularFactor":0
				}
			},
			"name":"palette.001",
			"pbrMetallicRoughness":{
				"baseColorTexture":{
					"index":0
				},
				"metallicFactor":0
			}
		},
		{
			"doubleSided":true,
			"extensions":{
				"KHR_materials_specular":{
					"specularFactor":0
				}
			},
			"name":"palette",
			"pbrMetallicRoughness":{
				"baseColorTexture":{
					"index":1
				},
				"metallicFactor":0
			}
		}
	],
	"meshes":[
		{
			"name":"Untitled.001",
			"primitives":[
				{
					"attributes":{
						"POSITION":0,
						"NORMAL":1,
						"TEXCOORD_0":2
					},
					"indices":3,
					"material":0
				},
				{
					"attributes":{
						"POSITION":4,
						"NORMAL":5,
						"TEXCOORD_0":6
					},
					"indices":7,
					"material":1
				}
			]
		}
	],
	"textures":[
		{
			"sampler":0,
			"source":0
		},
		{
			"sampler":0,
			"source":1
		}
	],
	"images":[
		{
			"mimeType":"image/png",
			"name":"asteroid-0",
			"uri":"asteroid-0.png"
		},
		{
			"mimeType":"image/png",
			"name":"asteroid-1",
			"uri":"asteroid-1.png"
		}
	],
	"accessors":[
		{
			"bufferView":0,
			"componentType":5126,
			"count":608240,
			"max":[
				10.589523315429688,
				12.175507545471191,
				-1.6083269119262695
			],
			"min":[
				-14.710472106933594,
				-13.424490928649902,
				-25.608325958251953
			],
			"type":"VEC3"
		},
		{
			"bufferView":1,
			"componentType":5126,
			"count":608240,
			"type":"VEC3"
		},
		{
			"bufferView":2,
			"componentType":5126,
			"count":608240,
			"type":"VEC2"
		},
		{
			"bufferView":3,
			"componentType":5125,
			"count":1197756,
			"type":"SCALAR"
		},
		{
			"bufferView":4,
			"componentType":5126,
			"count":626523,
			"max":[
				10.400638580322266,
				12.139445304870605,
				-25.590099334716797
			],
			"min":[
				-15.199359893798828,
				-13.460553169250488,
				-51.19009780883789
			],
			"type":"VEC3"
		},
		{
			"bufferView":5,
			"componentType":5126,
			"count":626523,
			"type":"VEC3"
		},
		{
			"bufferView":6,
			"componentType":5126,
			"count":626523,
			"type":"VEC2"
		},
		{
			"bufferView":7,
			"componentType":5125,
			"count":1230810,
			"type":"SCALAR"
		}
	],
	"bufferViews":[
		{
			"buffer":0,
			"byteLength":7298880,
			"byteOffset":0,
			"target":34962
		},
		{
			"buffer":0,
			"byteLength":7298880,
			"byteOffset":7298880,
			"target":34962
		},
		{
			"buffer":0,
			"byteLength":4865920,
			"byteOffset":14597760,
			"target":34962
		},
		{
			"buffer":0,
			"byteLength":4791024,
			"byteOffset":19463680,
			"target":34963
		},
		{
			"buffer":0,
			"byteLength":7518276,
			"byteOffset":24254704,
			"target":34962
		},
		{
			"buffer":0,
			"byteLength":7518276,
			"byteOffset":31772980,
			"target":34962
		},
		{
			"buffer":0,
			"byteLength":5012184,
			"byteOffset":39291256,
			"target":34962
		},
		{
			"buffer":0,
			"byteLength":4923240,
			"byteOffset":44303440,
			"target":34963
		}
	],
	"samplers":[
		{
			"magFilter":9729,
			"minFilter":9987
		}
	],
	"buffers":[
		{
			"byteLength":49226680,
			"uri":"asteroid.bin"
		}
	]
}
