{
 "asset": {
  "generator": "Khronos glTF Blender I/O v5.1.20",
  "version": "2.0"
 },
 "scene": 0,
 "scenes": [
  {
   "name": "Scene",
   "nodes": [
    1
   ]
  }
 ],
 "nodes": [
  {
   "mesh": 0,
   "name": "battery_pack_body"
  },
  {
   "children": [
    0
   ],
   "name": "battery_pack"
  }
 ],
 "materials": [
  {
   "name": "mat_battery_pack",
   "pbrMetallicRoughness": {
    "baseColorTexture": {
     "index": 0
    },
    "metallicFactor": 0.20000000298023224,
    "roughnessFactor": 0.5
   }
  }
 ],
 "meshes": [
  {
   "name": "battery_pack_body",
   "primitives": [
    {
     "attributes": {
      "POSITION": 0,
      "NORMAL": 1,
      "TEXCOORD_0": 2
     },
     "indices": 3,
     "material": 0
    }
   ]
  }
 ],
 "textures": [
  {
   "sampler": 0,
   "source": 0
  }
 ],
 "images": [
  {
   "mimeType": "image/png",
   "name": "t_battery_pack",
   "uri": "t_battery_pack.png"
  }
 ],
 "accessors": [
  {
   "bufferView": 0,
   "componentType": 5126,
   "count": 1980,
   "max": [
    0.3,
    0.6,
    0.3
   ],
   "min": [
    -0.3,
    -1e-07,
    -0.3000002
   ],
   "type": "VEC3"
  },
  {
   "bufferView": 1,
   "componentType": 5126,
   "count": 1980,
   "type": "VEC3"
  },
  {
   "bufferView": 2,
   "componentType": 5126,
   "count": 1980,
   "type": "VEC2"
  },
  {
   "bufferView": 3,
   "componentType": 5123,
   "count": 4488,
   "type": "SCALAR"
  }
 ],
 "bufferViews": [
  {
   "buffer": 0,
   "byteLength": 23760,
   "byteOffset": 0,
   "target": 34962
  },
  {
   "buffer": 0,
   "byteLength": 23760,
   "byteOffset": 23760,
   "target": 34962
  },
  {
   "buffer": 0,
   "byteLength": 15840,
   "byteOffset": 47520,
   "target": 34962
  },
  {
   "buffer": 0,
   "byteLength": 8976,
   "byteOffset": 63360,
   "target": 34963
  }
 ],
 "samplers": [
  {
   "magFilter": 9729,
   "minFilter": 9987
  }
 ],
 "buffers": [
  {
   "byteLength": 72336,
   "uri": "sm_battery_pack.bin"
  }
 ]
}