{
  "asset": {
    "version": "2.0",
    "generator": "tools/voxel-rubble/build_rubble.py",
    "extras": {
      "bufferSha1": "d9dc2788217ad5dceef940c56cb9799f98424bc1"
    }
  },
  "scene": 0,
  "scenes": [
    {
      "nodes": [
        0
      ]
    }
  ],
  "nodes": [
    {
      "name": "rubble",
      "mesh": 0
    }
  ],
  "meshes": [
    {
      "name": "sm_rubble06",
      "primitives": [
        {
          "attributes": {
            "POSITION": 0,
            "NORMAL": 1,
            "COLOR_0": 2
          },
          "indices": 3,
          "material": 0,
          "mode": 4
        }
      ]
    }
  ],
  "materials": [
    {
      "name": "mat_rubble",
      "pbrMetallicRoughness": {
        "baseColorFactor": [
          1.0,
          1.0,
          1.0,
          1.0
        ],
        "metallicFactor": 0.0,
        "roughnessFactor": 0.92
      },
      "doubleSided": false
    }
  ],
  "buffers": [
    {
      "uri": "sm_rubble06.bin",
      "byteLength": 17360
    }
  ],
  "bufferViews": [
    {
      "buffer": 0,
      "byteOffset": 0,
      "byteLength": 6720,
      "target": 34962
    },
    {
      "buffer": 0,
      "byteOffset": 6720,
      "byteLength": 6720,
      "target": 34962
    },
    {
      "buffer": 0,
      "byteOffset": 13440,
      "byteLength": 2240,
      "target": 34962
    },
    {
      "buffer": 0,
      "byteOffset": 15680,
      "byteLength": 1680,
      "target": 34963
    }
  ],
  "accessors": [
    {
      "bufferView": 0,
      "componentType": 5126,
      "count": 560,
      "type": "VEC3",
      "min": [
        -0.39,
        -0.09,
        -0.3
      ],
      "max": [
        0.39,
        0.09,
        0.3
      ]
    },
    {
      "bufferView": 1,
      "componentType": 5126,
      "count": 560,
      "type": "VEC3"
    },
    {
      "bufferView": 2,
      "componentType": 5121,
      "count": 560,
      "type": "VEC4",
      "normalized": true
    },
    {
      "bufferView": 3,
      "componentType": 5123,
      "count": 840,
      "type": "SCALAR"
    }
  ]
}
