{
  "asset": {
    "version": "2.0",
    "generator": "tools/voxel-rubble/build_rubble.py",
    "extras": {
      "bufferSha1": "3ba18207251b6bf65ac201be177450fee7f0a01d"
    }
  },
  "scene": 0,
  "scenes": [
    {
      "nodes": [
        0
      ]
    }
  ],
  "nodes": [
    {
      "name": "rubble",
      "mesh": 0
    }
  ],
  "meshes": [
    {
      "name": "sm_rubble05",
      "primitives": [
        {
          "attributes": {
            "POSITION": 0,
            "NORMAL": 1,
            "COLOR_0": 2
          },
          "indices": 3,
          "material": 0,
          "mode": 4
        }
      ]
    }
  ],
  "materials": [
    {
      "name": "mat_rubble",
      "pbrMetallicRoughness": {
        "baseColorFactor": [
          1.0,
          1.0,
          1.0,
          1.0
        ],
        "metallicFactor": 0.0,
        "roughnessFactor": 0.92
      },
      "doubleSided": false
    }
  ],
  "buffers": [
    {
      "uri": "sm_rubble05.bin",
      "byteLength": 12028
    }
  ],
  "bufferViews": [
    {
      "buffer": 0,
      "byteOffset": 0,
      "byteLength": 4656,
      "target": 34962
    },
    {
      "buffer": 0,
      "byteOffset": 4656,
      "byteLength": 4656,
      "target": 34962
    },
    {
      "buffer": 0,
      "byteOffset": 9312,
      "byteLength": 1552,
      "target": 34962
    },
    {
      "buffer": 0,
      "byteOffset": 10864,
      "byteLength": 1164,
      "target": 34963
    }
  ],
  "accessors": [
    {
      "bufferView": 0,
      "componentType": 5126,
      "count": 388,
      "type": "VEC3",
      "min": [
        -0.15,
        -0.15,
        -0.18
      ],
      "max": [
        0.15,
        0.15,
        0.18
      ]
    },
    {
      "bufferView": 1,
      "componentType": 5126,
      "count": 388,
      "type": "VEC3"
    },
    {
      "bufferView": 2,
      "componentType": 5121,
      "count": 388,
      "type": "VEC4",
      "normalized": true
    },
    {
      "bufferView": 3,
      "componentType": 5123,
      "count": 582,
      "type": "SCALAR"
    }
  ]
}
