{
  "asset": {
    "version": "2.0",
    "generator": "tools/voxel-rubble/build_rubble.py",
    "extras": {
      "bufferSha1": "c4fb8aee6db4e00a59a553114028e63580afa28c"
    }
  },
  "scene": 0,
  "scenes": [
    {
      "nodes": [
        0
      ]
    }
  ],
  "nodes": [
    {
      "name": "rubble",
      "mesh": 0
    }
  ],
  "meshes": [
    {
      "name": "sm_rubble04",
      "primitives": [
        {
          "attributes": {
            "POSITION": 0,
            "NORMAL": 1,
            "COLOR_0": 2
          },
          "indices": 3,
          "material": 0,
          "mode": 4
        }
      ]
    }
  ],
  "materials": [
    {
      "name": "mat_rubble",
      "pbrMetallicRoughness": {
        "baseColorFactor": [
          1.0,
          1.0,
          1.0,
          1.0
        ],
        "metallicFactor": 0.0,
        "roughnessFactor": 0.92
      },
      "doubleSided": false
    }
  ],
  "buffers": [
    {
      "uri": "sm_rubble04.bin",
      "byteLength": 46624
    }
  ],
  "bufferViews": [
    {
      "buffer": 0,
      "byteOffset": 0,
      "byteLength": 18048,
      "target": 34962
    },
    {
      "buffer": 0,
      "byteOffset": 18048,
      "byteLength": 18048,
      "target": 34962
    },
    {
      "buffer": 0,
      "byteOffset": 36096,
      "byteLength": 6016,
      "target": 34962
    },
    {
      "buffer": 0,
      "byteOffset": 42112,
      "byteLength": 4512,
      "target": 34963
    }
  ],
  "accessors": [
    {
      "bufferView": 0,
      "componentType": 5126,
      "count": 1504,
      "type": "VEC3",
      "min": [
        -0.36,
        -0.32999999999999996,
        -0.3
      ],
      "max": [
        0.36,
        0.32999999999999996,
        0.3
      ]
    },
    {
      "bufferView": 1,
      "componentType": 5126,
      "count": 1504,
      "type": "VEC3"
    },
    {
      "bufferView": 2,
      "componentType": 5121,
      "count": 1504,
      "type": "VEC4",
      "normalized": true
    },
    {
      "bufferView": 3,
      "componentType": 5123,
      "count": 2256,
      "type": "SCALAR"
    }
  ]
}
