{
  "asset": {
    "version": "2.0",
    "generator": "tools/voxel-rubble/build_rubble.py",
    "extras": {
      "bufferSha1": "b46ce0efe14216129cc2497f8ecf6d9f75de472f"
    }
  },
  "scene": 0,
  "scenes": [
    {
      "nodes": [
        0
      ]
    }
  ],
  "nodes": [
    {
      "name": "rubble",
      "mesh": 0
    }
  ],
  "meshes": [
    {
      "name": "sm_rubble08",
      "primitives": [
        {
          "attributes": {
            "POSITION": 0,
            "NORMAL": 1,
            "COLOR_0": 2
          },
          "indices": 3,
          "material": 0,
          "mode": 4
        }
      ]
    }
  ],
  "materials": [
    {
      "name": "mat_rubble",
      "pbrMetallicRoughness": {
        "baseColorFactor": [
          1.0,
          1.0,
          1.0,
          1.0
        ],
        "metallicFactor": 0.0,
        "roughnessFactor": 0.92
      },
      "doubleSided": false
    }
  ],
  "buffers": [
    {
      "uri": "sm_rubble08.bin",
      "byteLength": 24304
    }
  ],
  "bufferViews": [
    {
      "buffer": 0,
      "byteOffset": 0,
      "byteLength": 9408,
      "target": 34962
    },
    {
      "buffer": 0,
      "byteOffset": 9408,
      "byteLength": 9408,
      "target": 34962
    },
    {
      "buffer": 0,
      "byteOffset": 18816,
      "byteLength": 3136,
      "target": 34962
    },
    {
      "buffer": 0,
      "byteOffset": 21952,
      "byteLength": 2352,
      "target": 34963
    }
  ],
  "accessors": [
    {
      "bufferView": 0,
      "componentType": 5126,
      "count": 784,
      "type": "VEC3",
      "min": [
        -0.21,
        -0.39,
        -0.15
      ],
      "max": [
        0.21,
        0.39,
        0.15
      ]
    },
    {
      "bufferView": 1,
      "componentType": 5126,
      "count": 784,
      "type": "VEC3"
    },
    {
      "bufferView": 2,
      "componentType": 5121,
      "count": 784,
      "type": "VEC4",
      "normalized": true
    },
    {
      "bufferView": 3,
      "componentType": 5123,
      "count": 1176,
      "type": "SCALAR"
    }
  ]
}
